<svg width="184" height="183" viewBox="0 0 184 183" fill="none" xmlns="http://www.w3.org/2000/svg">
<path d="M183.185 156.577C187.621 147.842 174.944 104.169 87.0486 104.169C23.6054 104.169 -5.51323 139.916 0.924325 158.033" fill="url(#paint0_radial_1390_27517)"/>
<mask id="mask0_1390_27517" style="mask-type:luminance" maskUnits="userSpaceOnUse" x="0" y="104" width="184" height="55">
<path d="M183.185 156.577C187.621 147.842 174.944 104.169 87.0486 104.169C23.6054 104.169 -5.51323 139.916 0.924325 158.033" fill="white"/>
</mask>
<g mask="url(#mask0_1390_27517)">
<ellipse opacity="0.671968" cx="73.4918" cy="142.737" rx="4.83386" ry="2.67181" fill="url(#paint1_linear_1390_27517)"/>
<ellipse opacity="0.256348" cx="122.83" cy="124.582" rx="7.62676" ry="4.16802" fill="url(#paint2_linear_1390_27517)"/>
<ellipse opacity="0.729957" cx="36.0347" cy="113.466" rx="7.62676" ry="4.16802" fill="url(#paint3_linear_1390_27517)"/>
</g>
<path opacity="0.5" d="M71.7001 113.854C71.7001 113.854 90.4036 122.606 97.8235 125.965C103.701 128.625 133.964 137.136 137.569 134.716C141.174 132.297 149.135 125.658 146.507 121.109C143.879 116.56 130.058 108.393 123.448 107.2C116.839 106.006 97.9389 111.431 97.9389 111.431L81.818 114.186L71.7001 113.854Z" fill="url(#paint4_linear_1390_27517)"/>
<path d="M85.5634 74.7251L64.7213 89.9751L70.2785 77.0009L91.1512 63.8147L85.5634 74.7251Z" fill="#E2E7EC"/>
<path d="M69.9319 77.2684L91.1513 64.0498V100.1L71.7001 113.671L69.9319 77.2684Z" fill="#D8DFE6"/>
<path d="M91.1512 64.0498L123.688 71.6244V107.688L91.1512 100.114V64.0498Z" fill="#E9EFF1"/>
<path d="M69.9319 77.2666L103.176 84.9975V121.061L71.7001 113.869L69.9319 77.2666Z" fill="#E8EAEB"/>
<path d="M102.468 85.0108L123.687 71.7922V107.843L102.468 121.061V85.0108Z" fill="#D8DFE6"/>
<mask id="mask1_1390_27517" style="mask-type:luminance" maskUnits="userSpaceOnUse" x="102" y="71" width="22" height="51">
<path d="M102.468 85.0108L123.687 71.7922V107.843L102.468 121.061V85.0108Z" fill="white"/>
</mask>
<g mask="url(#mask1_1390_27517)">
<rect x="110.349" y="68.7881" width="6.66895" height="55.2777" fill="#C7D0D9"/>
</g>
<path d="M112.01 95.723L132.882 82.5368L123.34 71.7922L102.468 84.9784L112.01 95.723Z" fill="#E2E7EC"/>
<path opacity="0.5" d="M53.3918 114.764L86.0591 131.456L89.1091 122.611L57.0573 111.949L53.3918 114.764Z" fill="url(#paint5_linear_1390_27517)"/>
<path d="M52.4999 87.3245L63.7643 88.2124L61.2629 112.715C61.2629 112.715 61.0438 112.96 60.5124 112.865C59.9809 112.769 59.4234 112.474 59.4234 112.474L57.748 92.9951C57.748 92.9951 56.7791 99.8827 56.8468 101.821C56.8978 103.28 57.397 105.062 57.6641 106.585C57.8941 107.896 58.3778 111.029 58.3778 111.029C58.3778 111.029 57.8062 111.29 57.5022 111.349C57.1982 111.408 56.8084 111.084 56.8084 111.084C56.8084 111.084 52.859 103.418 52.8081 101.962C52.7573 100.506 52.4999 87.3245 52.4999 87.3245Z" fill="url(#paint6_linear_1390_27517)"/>
<path d="M56.6335 111.048C56.6335 111.048 56.1318 111.952 55.5085 112.502C54.8853 113.053 53.6554 113.711 53.375 114.01C53.0946 114.308 53.4008 114.749 53.4008 114.749L56.4151 114.644L58.8237 112.606L58.4872 110.664L56.6335 111.048Z" fill="#677285"/>
<path d="M61.5464 112.094L62.2502 114.046C62.2502 114.046 61.0945 114.941 59.4979 115.19C57.9012 115.439 56.801 115.057 56.801 115.057C56.801 115.057 56.5127 114.476 57.056 114.228C57.3056 114.114 57.8649 113.64 58.356 113.033C58.5777 112.759 59.4127 112.169 59.4127 112.169L61.5464 112.094Z" fill="#677285"/>
<path d="M66.5928 74.5497C66.5928 74.5497 67.516 75.9542 68.0821 75.5784C68.6483 75.2026 72.1825 71.5802 72.1825 71.5802C72.1825 71.5802 73.2337 70.7708 73.4282 70.9632C73.6227 71.1556 73.0776 71.5802 73.0776 71.5802C73.0776 71.5802 74.2248 71.6929 74.5833 71.6929C74.9417 71.6929 75.6957 72.2652 75.2027 72.4578C74.7097 72.6504 72.7972 72.6979 72.7972 72.6979C72.7972 72.6979 69.8937 78.1887 68.3807 78.578C66.8677 78.9674 64.7831 76.7654 64.7831 76.7654L66.5928 74.5497Z" fill="#FDE7E6"/>
<path d="M51.8409 74.6506C51.8409 74.6506 51.2355 75.8901 50.687 75.5927C50.1384 75.2953 47.0605 72.0494 47.0605 72.0494C47.0605 72.0494 46.0355 71.4216 45.7848 71.5346C45.5341 71.6475 46.1521 72.0494 46.1521 72.0494C46.1521 72.0494 44.644 72.1718 44.3603 72.2858C44.0767 72.3998 43.7462 72.7495 44.1752 72.9084C44.6041 73.0674 46.246 73.1805 46.246 73.1805C46.246 73.1805 48.5286 77.6909 50.2579 78.2183C51.9872 78.7457 53.4605 76.6676 53.4605 76.6676L51.8409 74.6506Z" fill="#FDE7E6"/>
<path d="M57.4397 70.8544V68.6383C57.4397 68.6383 56.2907 68.6965 55.8236 67.9272C55.3566 67.1578 55.2304 64.9744 55.2304 64.9744L55.5824 63.9622L59.0431 63.8159L60.8612 65.3653L60.0147 66.8604L59.8533 67.1477L60.6602 70.5457L57.4397 70.8544Z" fill="#FDE7E6"/>
<mask id="mask2_1390_27517" style="mask-type:luminance" maskUnits="userSpaceOnUse" x="55" y="63" width="6" height="8">
<path d="M57.4397 70.8544V68.6383C57.4397 68.6383 56.2907 68.6965 55.8236 67.9272C55.3566 67.1578 55.2304 64.9744 55.2304 64.9744L55.5824 63.9622L59.0431 63.8159L60.8612 65.3653L60.0147 66.8604L59.8533 67.1477L60.6602 70.5457L57.4397 70.8544Z" fill="white"/>
</mask>
<g mask="url(#mask2_1390_27517)">
<path d="M59.6911 66.5325C58.6683 67.8045 56.8994 68.6934 56.669 68.6934C56.4387 68.6934 57.9553 70.2887 57.9553 70.2887L59.1891 70.8544L60.9404 70.4831L61.5656 68.6934L60.4619 66.6629C60.4619 66.6629 60.7138 65.2605 59.6911 66.5325Z" fill="url(#paint7_linear_1390_27517)"/>
</g>
<path d="M51.1058 75.5407L52.8065 77.8315L53.8911 76.6861C53.8911 76.6861 53.0662 81.2091 52.8065 83.3783C52.5467 85.5475 52.4985 87.7081 52.4985 87.7081C52.4985 87.7081 55.2216 88.7191 57.2516 88.8892C59.2816 89.0593 64.0074 88.6213 64.0074 88.6213L63.3974 75.8896L65.1673 77.5328L67.2456 75.1331C67.2456 75.1331 63.6681 69.6352 62.9915 69.3149C62.315 68.9946 60.4343 69.3149 60.4343 69.3149C60.4343 69.3149 59.0997 70.8943 58.5585 70.9163C58.0174 70.9383 56.817 69.3149 56.817 69.3149C56.817 69.3149 54.8991 69.0086 54.3415 69.6352C53.7838 70.2618 51.1058 75.5407 51.1058 75.5407Z" fill="url(#paint8_linear_1390_27517)"/>
<path d="M55.231 64.9992C55.231 64.9992 55.6388 63.9701 56.1712 64.1494C56.675 64.3191 57.1114 64.7229 57.7382 64.9124C58.365 65.102 58.4343 64.2505 58.8602 64.3942C59.2862 64.538 59.005 65.7907 59.3053 66.0239C59.6055 66.2572 59.6055 64.3942 60.2455 64.8958C60.8855 65.3973 59.5777 66.809 59.5777 66.809C59.5777 66.809 59.7454 67.6766 59.7991 67.7356C59.8529 67.7947 59.8468 67.1044 59.8468 67.1044C59.8468 67.1044 60.458 66.8698 60.7185 65.8115C60.979 64.7533 61.0916 64.3319 60.7185 63.563C60.3454 62.7941 60.239 62.1919 59.3053 61.8292C58.3715 61.4664 57.663 61.6083 57.0104 61.8292C56.3577 62.05 55.8848 62.4889 55.5829 62.9255C54.8791 63.9621 55.231 64.9992 55.231 64.9992Z" fill="#4D364F"/>
<path fill-rule="evenodd" clip-rule="evenodd" d="M118.155 37.8566C117.413 38.0833 102.059 47.27 102.059 47.27L106.54 47.6042L109.724 51.1231C109.724 51.1231 118.897 37.6298 118.155 37.8566Z" fill="#E8EAEB"/>
<mask id="mask3_1390_27517" style="mask-type:luminance" maskUnits="userSpaceOnUse" x="102" y="37" width="17" height="15">
<path fill-rule="evenodd" clip-rule="evenodd" d="M118.155 37.8566C117.413 38.0833 102.059 47.27 102.059 47.27L106.54 47.6042L109.724 51.1231C109.724 51.1231 118.897 37.6298 118.155 37.8566Z" fill="white"/>
</mask>
<g mask="url(#mask3_1390_27517)">
<path fill-rule="evenodd" clip-rule="evenodd" d="M106.54 47.6043L118.155 37.8567L109.724 51.1233L106.54 47.6043Z" fill="#D8DFE6"/>
</g>
<path fill-rule="evenodd" clip-rule="evenodd" d="M115.849 48.502L110.465 47.9392L118.161 37.9515L115.849 48.502Z" fill="#E8EAEB"/>
<path fill-rule="evenodd" clip-rule="evenodd" d="M105.935 55.156C106.272 54.4441 106.611 53.7072 106.952 52.9453L107.508 53.1945C107.166 53.9602 106.825 54.7009 106.487 55.4166L105.935 55.156ZM103.744 59.4992C104.116 58.8133 104.491 58.0949 104.869 57.344L105.414 57.6182C105.033 58.3745 104.656 59.0984 104.281 59.7899L103.744 59.4992ZM102.549 61.6122C102.115 62.3429 101.686 63.0277 101.262 63.6665L101.77 64.0043C102.2 63.3565 102.635 62.6629 103.073 61.9235L102.549 61.6122ZM98.2854 67.4668C98.7999 66.9331 99.3221 66.3241 99.8518 65.6397L100.334 66.0131C99.7914 66.7143 99.255 67.34 98.7246 67.8901L98.2854 67.4668ZM96.4937 69.0429C95.7806 69.5539 95.0862 69.9073 94.411 70.1049L94.5822 70.6903C95.3273 70.4724 96.0827 70.0879 96.849 69.5388L96.4937 69.0429ZM90.1093 69.1073C90.7801 69.6482 91.4621 70.0025 92.1561 70.1734L92.0102 70.7657C91.2254 70.5724 90.4638 70.1769 89.7264 69.5822L90.1093 69.1073ZM88.4652 67.3748C88.4274 67.3253 88.3897 67.2752 88.352 67.2244C87.861 66.5635 87.5043 65.9362 87.2768 65.3437L86.7073 65.5623C86.9558 66.2096 87.3398 66.8848 87.8623 67.5882C87.9016 67.6411 87.941 67.6934 87.9805 67.7451L88.4652 67.3748ZM88.319 61.2385C87.6602 61.7828 87.2363 62.4075 87.0635 63.1044L86.4714 62.9575C86.6777 62.126 87.1759 61.3915 87.9306 60.7682L88.319 61.2385ZM90.3569 60.0923C91.0433 59.8243 91.8151 59.6057 92.652 59.4407L92.534 58.8422C91.663 59.0139 90.8566 59.2423 90.135 59.5241L90.3569 60.0923ZM97.4276 59.0917C96.616 59.0628 95.8073 59.0762 95.0197 59.1316L94.9769 58.5232C95.7861 58.4662 96.6164 58.4524 97.4493 58.482L97.4276 59.0917ZM99.8557 59.3055C100.673 59.4219 101.464 59.5814 102.212 59.7813L102.369 59.192C101.598 58.9857 100.783 58.8214 99.9417 58.7016L99.8557 59.3055ZM106.502 61.7915C105.945 61.3376 105.264 60.9301 104.478 60.576L104.729 60.0199C105.561 60.3947 106.286 60.8292 106.887 61.3184L106.502 61.7915ZM107.956 63.6238C108.103 63.9657 108.197 64.3219 108.237 64.6924C108.279 65.0843 108.294 65.4782 108.281 65.8743L108.89 65.8942C108.904 65.4698 108.889 65.0475 108.844 64.6274C108.797 64.1958 108.688 63.7803 108.516 63.3826L107.956 63.6238ZM106.979 70.4193C107.372 69.6788 107.676 68.946 107.891 68.221L108.476 68.3948C108.248 69.1595 107.929 69.9296 107.518 70.705L106.979 70.4193ZM105.687 72.4587C105.236 73.0733 104.726 73.6928 104.157 74.3172L104.608 74.7281C105.191 74.0882 105.715 73.4521 106.179 72.8197L105.687 72.4587ZM100.654 77.6177C101.301 77.0817 101.908 76.5489 102.473 76.0193L102.89 76.4644C102.316 77.0027 101.7 77.5437 101.043 78.0876L100.654 77.6177ZM98.7315 79.1282C98.1044 79.5974 97.4466 80.0689 96.758 80.5427L97.1038 81.0452C97.799 80.5669 98.4633 80.0907 99.0969 79.6166L98.7315 79.1282ZM93.4424 82.6958C93.8757 82.4291 94.2996 82.163 94.7141 81.8977L95.043 82.4114C94.6255 82.6787 94.1985 82.9467 93.7621 83.2153L93.4424 82.6958Z" fill="#C7D0D9"/>
<defs>
<radialGradient id="paint0_radial_1390_27517" cx="0" cy="0" r="1" gradientUnits="userSpaceOnUse" gradientTransform="translate(79.8079 122.849) rotate(-90) scale(31.3176 328.692)">
<stop stop-color="#EBEDF0" stop-opacity="0.24"/>
<stop offset="0.536775" stop-color="#EBEDF0" stop-opacity="0.845525"/>
<stop offset="1" stop-color="#E0E4E7" stop-opacity="0.01"/>
</radialGradient>
<linearGradient id="paint1_linear_1390_27517" x1="69.6009" y1="142.029" x2="71.0617" y2="145.168" gradientUnits="userSpaceOnUse">
<stop stop-color="#E1E7EA"/>
<stop offset="1" stop-color="#D0D6DC"/>
</linearGradient>
<linearGradient id="paint2_linear_1390_27517" x1="116.426" y1="124.192" x2="119.099" y2="129.795" gradientUnits="userSpaceOnUse">
<stop stop-color="#E1E7EA"/>
<stop offset="1" stop-color="#D0D6DC"/>
</linearGradient>
<linearGradient id="paint3_linear_1390_27517" x1="31.1717" y1="113.534" x2="32.6824" y2="119.582" gradientUnits="userSpaceOnUse">
<stop stop-color="#FBFBFB"/>
<stop offset="1" stop-color="#D9DFE3"/>
</linearGradient>
<linearGradient id="paint4_linear_1390_27517" x1="68.9518" y1="116.889" x2="74.3418" y2="141.18" gradientUnits="userSpaceOnUse">
<stop stop-color="#C4CDD1"/>
<stop offset="1" stop-color="#C6CFD3" stop-opacity="0.01"/>
</linearGradient>
<linearGradient id="paint5_linear_1390_27517" x1="52.2582" y1="119.334" x2="58.5386" y2="135.725" gradientUnits="userSpaceOnUse">
<stop stop-color="#C4CDD1"/>
<stop offset="1" stop-color="#C6CFD3" stop-opacity="0.01"/>
</linearGradient>
<linearGradient id="paint6_linear_1390_27517" x1="64.5786" y1="112.759" x2="63.6836" y2="87.1277" gradientUnits="userSpaceOnUse">
<stop stop-color="#A1A7B8"/>
<stop offset="1" stop-color="#7B8195"/>
</linearGradient>
<linearGradient id="paint7_linear_1390_27517" x1="60.1757" y1="69.3664" x2="60.1757" y2="67.2192" gradientUnits="userSpaceOnUse">
<stop stop-color="#FBD8D6"/>
<stop offset="1" stop-color="#EAC0BE" stop-opacity="0.7"/>
</linearGradient>
<linearGradient id="paint8_linear_1390_27517" x1="42.941" y1="78.1871" x2="59.9098" y2="96.0876" gradientUnits="userSpaceOnUse">
<stop stop-color="#E5E9F0"/>
<stop offset="1" stop-color="#D2DAE8"/>
</linearGradient>
</defs>
</svg>
