<svg width="393" height="506" viewBox="0 0 393 506" fill="none" xmlns="http://www.w3.org/2000/svg">
<path d="M2939.2 6.25083L2914.91 1M2939.2 6.25083H2867.23M2939.2 6.25083L2964.29 11.6751M2939.2 6.25083H2990.16M2914.91 1L2923.75 1.00205L2932.49 1.01342L2941.06 1.04538L2949.35 1.10834L2957.28 1.21051L2964.77 1.3643L2971.73 1.57792L2978.19 1.85035L2983.73 2.22705L2988.77 2.66359L2990.16 2.8165V6.25083M2914.91 1H2844.11M2844.11 1H2773.3M2844.11 1L2867.23 6.25083M2773.3 1H2702.5M2773.3 1L2795.27 6.25083M2702.5 1H2631.69M2702.5 1L2723.31 6.25083M2631.69 1H2560.89M2631.69 1L2651.35 6.25083M2560.89 1H2490.08M2560.89 1L2579.39 6.25083M2490.08 1H2419.27M2490.08 1L2507.43 6.25083M2419.27 1H2348.47M2419.27 1L2435.46 6.25083M2348.47 1H2277.66M2348.47 1L2363.5 6.25083M2277.66 1H2206.86M2277.66 1L2291.54 6.25083M2206.86 1H2136.05M2206.86 1L2219.58 6.25083M2136.05 1H2065.25M2136.05 1L2147.62 6.25083M2065.25 1H1994.44M2065.25 1L2067.82 2.29722L2071.71 4.26114L2075.65 6.25083M1994.44 1H1923.64M1994.44 1L1996.73 2.29722L2003.69 6.25083M1923.64 1H1852.83M1923.64 1L1931.73 6.25083M1852.83 1H1782.03M1852.83 1L1855.41 2.94944L1858.02 4.92161L1858.89 5.5852L1859.77 6.25083M1782.03 1H1711.22M1782.03 1L1784.17 2.94944L1784.89 3.60373L1785.62 4.26114L1787.81 6.25083M1711.22 1H1640.42M1711.22 1L1715.85 6.25083M1640.42 1L1640.84 1.64705L1641.27 2.29722L1643.44 5.5852L1643.89 6.25083M1640.42 1H1569.61M1569.61 1H1498.8M1569.61 1L1571.92 6.25083M1498.8 1H1428M1498.8 1L1499.23 2.94944L1499.96 6.25083M1428 1H1357.2M1428 1V6.25083M1357.2 1H1286.39M1357.2 1L1356.77 2.94944L1356.04 6.25083M1286.39 1H1215.58M1286.39 1L1284.08 6.25083M1215.58 1L1215.16 1.64705L1214.73 2.29722L1212.56 5.5852L1212.11 6.25083M1215.58 1H1144.78M1144.78 1H1073.97M1144.78 1L1140.74 5.5852L1140.15 6.25083M1073.97 1H1003.17M1073.97 1L1071.83 2.94944L1071.11 3.60373L1069.65 4.92161L1068.92 5.5852L1068.19 6.25083M1003.17 1H932.363M1003.17 1L1000.59 2.94944L997.985 4.92161L997.11 5.5852L996.229 6.25083M932.363 1H861.558M932.363 1L924.269 6.25083M861.558 1H790.751M861.558 1L859.273 2.29722L852.307 6.25083M790.751 1H719.947M790.751 1L780.345 6.25083M719.947 1H649.142M719.947 1L708.383 6.25083M649.142 1H578.335M649.142 1L636.422 6.25083M578.335 1H507.531M578.335 1L564.46 6.25083M507.531 1H436.726M507.531 1L492.498 6.25083M436.726 1H365.921M436.726 1L420.536 6.25083M365.921 1H295.114M365.921 1L348.574 6.25083M295.114 1H224.31M295.114 1L276.613 6.25083M224.31 1H153.505M224.31 1L204.651 6.25083M153.505 1H82.6983M153.505 1L132.689 6.25083M82.6983 1H11.8934M82.6983 1L60.7288 6.25083M11.8934 1H-58.9115M11.8934 1L-11.2331 6.25083M-58.9115 1L-67.7474 1.00205L-76.4923 1.01342L-85.0549 1.04538L-93.3489 1.10834L-101.283 1.21051L-108.774 1.3643L-115.73 1.57792L-122.187 1.85035L-127.728 2.22705L-132.772 2.66359L-134.159 2.81653V6.25083M-58.9115 1L-83.1949 6.25083M60.7288 6.25083H132.689M60.7288 6.25083H-11.2331M60.7288 6.25083L38.027 11.6751M132.689 6.25083L111.183 11.6751M132.689 6.25083H204.651M348.574 6.25083H420.536M348.574 6.25083H276.613M348.574 6.25083L344.15 7.59038L330.654 11.6751M420.536 6.25083L403.81 11.6751M420.536 6.25083H492.498M636.422 6.25083H708.383M636.422 6.25083H564.46M636.422 6.25083L633.177 7.59038L631.543 8.26326L623.278 11.6751M708.383 6.25083L706.911 6.91854L705.433 7.59038L696.436 11.6751M708.383 6.25083H780.345M924.269 6.25083L923.237 6.91854L915.905 11.6751M924.269 6.25083H996.229M924.269 6.25083H852.307M996.229 6.25083L994.46 7.59038L993.569 8.26326L992.675 8.94026L989.061 11.6751M996.229 6.25083H1068.19M1212.11 6.25083H1284.08M1212.11 6.25083H1140.15M1212.11 6.25083L1208.53 11.6751M1284.08 6.25083L1283.78 6.91854L1283.49 7.59038L1283.19 8.26326L1282.29 10.3015L1281.69 11.6751M1284.08 6.25083H1356.04M1499.96 6.25083H1571.92M1499.96 6.25083H1428M1499.96 6.25083L1501.16 11.6751M1571.92 6.25083L1572.22 6.91854L1572.51 7.59038L1572.81 8.26326L1574.31 11.6751M1571.92 6.25083H1643.89M1787.81 6.25083H1859.77M1787.81 6.25083H1715.85M1787.81 6.25083L1789.28 7.59038L1792.27 10.3015L1793.02 10.9867L1793.78 11.6751M1859.77 6.25083L1861.54 7.59038L1862.43 8.26326L1863.32 8.94026L1866.94 11.6751M1859.77 6.25083H1931.73M2075.65 6.25083H2147.62M2075.65 6.25083H2003.69M2075.65 6.25083L2078.31 7.59038L2079.65 8.26326L2086.41 11.6751M2147.62 6.25083L2149.09 6.91854L2150.57 7.59038L2159.56 11.6751M2147.62 6.25083H2219.58M2363.5 6.25083H2435.46M2363.5 6.25083H2291.54M2363.5 6.25083L2367.34 7.59038L2369.27 8.26326L2379.03 11.6751M2435.46 6.25083L2452.19 11.6751M2435.46 6.25083H2507.43M2651.35 6.25083H2723.31M2651.35 6.25083H2579.39M2651.35 6.25083L2671.66 11.6751M2723.31 6.25083L2744.82 11.6751M2723.31 6.25083H2795.27M-134.411 55.3537H-134.159M-61.9805 55.3537L-34.506 48.4238M-61.9805 55.3537L-90.5078 62.5489M-61.9805 55.3537H20.7961M-61.9805 55.3537H-134.159M-34.506 48.4238H-115.756M-34.506 48.4238L-8.02576 41.7446M-34.506 48.4238H46.7442M-115.756 48.4238L-87.8049 41.7446M-115.756 48.4238H-134.159M-115.756 48.4238L-134.159 52.8203M-34.8347 29.0861H42.157M-34.8347 29.0861L-9.71322 23.0829M-34.8347 29.0861H-111.825M-34.8347 29.0861L-60.8495 35.3029M42.157 29.0861L65.9571 23.0829M42.157 29.0861L17.5123 35.3029M42.157 29.0861H119.149M-9.71322 23.0829H65.9571M-9.71322 23.0829L14.5604 17.283M-9.71322 23.0829H-85.3819M65.9571 23.0829H141.626M65.9571 23.0829L88.9517 17.283M-134.951 164.736H-134.159M-68.1591 164.736L-32.7307 153.247M-68.1591 164.736L-105.348 176.797M-68.1591 164.736H38.7104M-68.1591 164.736H-134.159M-32.7307 153.247L1.05916 142.289M-32.7307 153.247H71.6069M-32.7307 153.247H-134.159M-100.865 142.289H1.05916M-100.865 142.289L-66.2992 131.826M-100.865 142.289H-134.159M-100.865 142.289L-134.159 152.366M-33.2628 121.826H64.1541M-33.2628 121.826L-1.65509 112.26M-33.2628 121.826H-130.68M-33.2628 121.826L-66.2992 131.826M64.1541 121.826L93.6561 112.26M64.1541 121.826L33.3194 131.826M64.1541 121.826H161.573M-1.65509 112.26H93.6561M-1.65509 112.26H-96.9647M-1.65509 112.26L28.615 103.097M93.6561 112.26L121.907 103.097M93.6561 112.26H188.966M85.4646 85.8898H174.967M85.4646 85.8898L112.192 77.7999M85.4646 85.8898H-4.03739M85.4646 85.8898L57.6288 94.3151M174.967 85.8898L199.912 77.7999M174.967 85.8898L148.987 94.3151M174.967 85.8898H264.47M112.192 77.7999H199.912M112.192 77.7999H24.472M112.192 77.7999L137.877 70.0257M199.912 77.7999L223.885 70.0257M199.912 77.7999H287.634M186.349 55.3537H269.126M186.349 55.3537L209.245 48.4238M186.349 55.3537H103.573M186.349 55.3537L162.577 62.5489M269.126 55.3537L290.495 48.4238M269.126 55.3537L246.938 62.5489M269.126 55.3537H351.902M209.245 48.4238H290.495M209.245 48.4238H127.994M209.245 48.4238L231.312 41.7446M290.495 48.4238L311.091 41.7446M290.495 48.4238H371.745M273.13 29.0861H350.122M273.13 29.0861L292.963 23.0829M273.13 29.0861H196.14M273.13 29.0861L252.593 35.3029M350.122 29.0861L368.632 23.0829M350.122 29.0861L330.953 35.3029M350.122 29.0861H427.114M292.963 23.0829H368.632M292.963 23.0829L312.127 17.283M292.963 23.0829H217.294M368.632 23.0829H444.302M368.632 23.0829L386.519 17.283M-79.4067 363.928L-29.5445 341.289M-79.4067 363.928L-132.803 388.171M-79.4067 363.928H71.3335M-79.4067 363.928H-134.159M-29.5445 341.289L17.1266 320.1M-29.5445 341.289H116.21M-29.5445 341.289H-134.159M-30.5567 281.546H102.04M-30.5567 281.546L12.0528 263.959M-30.5567 281.546L-75.8105 300.225M-30.5567 281.546H-134.159M102.04 281.546L140.775 263.959M102.04 281.546L60.8996 300.225M102.04 281.546H234.636M12.0528 263.959H140.775M12.0528 263.959H-116.669M12.0528 263.959L52.2443 247.37M140.775 263.959L177.313 247.37M140.775 263.959H269.498M126.147 216.866H244.499M126.147 216.866L160.201 202.811M126.147 216.866H7.79758M126.147 216.866L90.2161 231.698M244.499 216.866L275.456 202.811M244.499 216.866L211.832 231.698M244.499 216.866H362.849M160.201 202.811H275.456M160.201 202.811H44.9461M160.201 202.811L192.516 189.472M275.456 202.811L304.834 189.472M275.456 202.811H390.709M252.446 164.736H359.316M252.446 164.736L280.284 153.247M252.446 164.736H145.578M252.446 164.736L223.227 176.797M359.316 164.736L384.621 153.247M359.316 164.736L332.751 176.797M359.316 164.736H466.184M280.284 153.247H384.621M280.284 153.247H175.946M280.284 153.247L306.832 142.289M384.621 153.247L408.757 142.289M384.621 153.247H488.959M356.408 121.826H453.825M356.408 121.826L379.586 112.26M356.408 121.826H258.989M356.408 121.826L332.18 131.826M453.825 121.826L474.898 112.26M453.825 121.826L431.8 131.826M453.825 121.826H551.242M379.586 112.26H474.898M379.586 112.26H284.277M379.586 112.26L401.784 103.097M474.898 112.26L495.077 103.097M474.898 112.26H570.207M443.474 85.8898H532.976M443.474 85.8898L463.074 77.7999M443.474 85.8898H353.972M443.474 85.8898L423.062 94.3151M532.976 85.8898L535.244 84.8608L550.794 77.7999M532.976 85.8898L514.42 94.3151M532.976 85.8898H622.479M463.074 77.7999H550.794M463.074 77.7999H375.354M463.074 77.7999L481.91 70.0257M550.794 77.7999L567.918 70.0257M550.794 77.7999H638.516M517.455 55.3537H600.233M517.455 55.3537L534.247 48.4238M517.455 55.3537H434.679M517.455 55.3537L500.022 62.5489M600.233 55.3537L615.497 48.4238M600.233 55.3537L594.361 58.0204L584.384 62.5489M600.233 55.3537H683.01M534.247 48.4238H615.497M534.247 48.4238H452.997M534.247 48.4238L550.428 41.7446M615.497 48.4238L630.207 41.7446M615.497 48.4238H696.747M581.095 29.0861H658.087M581.095 29.0861L595.64 23.0829M581.095 29.0861H504.105M581.095 29.0861L566.035 35.3029M658.087 29.0861L668.047 24.5648L669.681 23.8218L671.31 23.0829M658.087 29.0861L644.395 35.3029M658.087 29.0861H735.079M595.64 23.0829H671.31M595.64 23.0829L609.693 17.283M595.64 23.0829H519.971M671.31 23.0829H746.979M671.31 23.0829L684.084 17.283M-24.7913 621.818H182.751M-24.7913 621.818L40.559 579.431M-24.7913 621.818L-96.6018 668.396M-24.7913 621.818L-134.159 621.819M182.751 621.818L238.766 579.431M182.751 621.818L121.199 668.396M182.751 621.818H390.292M40.559 579.431H238.766M40.559 579.431L100.284 540.694M40.559 579.431H-134.159M238.766 579.431L289.958 540.694M238.766 579.431H436.971M205.529 472.431H380.169M205.529 472.431L252.134 442.202M205.529 472.431H30.8915M205.529 472.431L155.078 505.154M380.169 472.431L420.115 442.202M380.169 472.431L336.925 505.154M380.169 472.431H554.807M252.134 442.202H420.115M252.134 442.202H84.153M252.134 442.202L295.316 414.195M420.115 442.202L457.128 414.195M420.115 442.202H588.096M372.816 363.928H523.556M372.816 363.928L407.72 341.289M372.816 363.928H222.074M372.816 363.928L335.438 388.171M523.556 363.928L553.474 341.289M523.556 363.928L491.518 388.171M523.556 363.928H674.296M407.72 341.289H553.474M407.72 341.289H261.964M407.72 341.289L440.389 320.1M553.474 341.289L581.476 320.1M553.474 341.289H699.229M499.827 281.546H632.424M499.827 281.546L526.944 263.959M499.827 281.546H367.232M499.827 281.546L471.03 300.225M632.424 281.546L655.665 263.959M632.424 281.546L607.74 300.225M632.424 281.546H765.02M526.944 263.959H655.665M526.944 263.959H398.22M526.944 263.959L552.519 247.37M655.665 263.959L677.588 247.37M655.665 263.959H784.387M599.548 216.866H717.9M599.548 216.866L621.218 202.811M599.548 216.866H481.198M599.548 216.866L576.682 231.698M717.9 216.866L736.473 202.811M717.9 216.866L698.299 231.698M717.9 216.866H836.25M621.218 202.811H736.473M621.218 202.811H505.964M621.218 202.811L641.783 189.472M736.473 202.811L754.099 189.472M736.473 202.811H851.728M679.921 164.736H786.789M679.921 164.736L697.636 153.247M679.921 164.736H573.052M679.921 164.736L661.327 176.797M786.789 164.736L801.973 153.247M786.789 164.736L770.85 176.797M786.789 164.736H893.657M697.636 153.247H801.973M697.636 153.247H593.296M697.636 153.247L714.53 142.289M801.973 153.247L816.454 142.289M801.973 153.247H906.311M746.077 121.826H843.496M746.077 121.826L760.828 112.26M746.077 121.826H648.66M746.077 121.826L730.661 131.826M843.496 121.826L856.138 112.26M843.496 121.826L830.281 131.826M843.496 121.826H940.913M760.828 112.26H856.138M760.828 112.26H665.517M760.828 112.26L774.954 103.097M856.138 112.26L868.246 103.097M856.138 112.26H951.449M801.483 85.8898H890.987M801.483 85.8898L813.956 77.7999M801.483 85.8898H711.981M801.483 85.8898L788.493 94.3151M890.987 85.8898L889.618 86.9238L879.852 94.3151M890.987 85.8898L901.676 77.7999M890.987 85.8898H980.489M813.956 77.7999H901.676M813.956 77.7999H726.236M813.956 77.7999L825.943 70.0257M901.676 77.7999L911.951 70.0257M901.676 77.7999H989.398M848.563 55.3537H931.339M848.563 55.3537L859.247 48.4238M848.563 55.3537H765.786M848.563 55.3537L837.47 62.5489M931.339 55.3537L940.498 48.4238M931.339 55.3537L927.816 58.0204L925.439 59.8192L921.831 62.5489M931.339 55.3537H1014.12M859.247 48.4238H940.498M859.247 48.4238H777.997M859.247 48.4238L869.545 41.7446M940.498 48.4238L943.846 45.8902L946.053 44.2204L949.325 41.7446M940.498 48.4238H1021.75M889.062 29.0861H966.052M889.062 29.0861L896.033 24.5648L898.316 23.0829M889.062 29.0861H812.07M889.062 29.0861L880.693 34.5134L879.477 35.3029M966.052 29.0861L972.029 24.5648L973.008 23.8218L973.986 23.0829M966.052 29.0861L961.98 32.1666L957.837 35.3029M966.052 29.0861H1043.04M898.316 23.0829H973.986M898.316 23.0829L907.259 17.283M898.316 23.0829H822.647M973.986 23.0829H1049.66M973.986 23.0829L981.651 17.283M805.376 621.818H1012.92M805.376 621.818L833.382 579.431M805.376 621.818H597.835M805.376 621.818L774.6 668.396M1012.92 621.818L1031.59 579.431M1012.92 621.818L992.4 668.396M1012.92 621.818H1220.46M833.382 579.431H1031.59M833.382 579.431H635.177M833.382 579.431L858.979 540.694M1031.59 579.431L1048.65 540.694M1031.59 579.431H1229.79M904.085 472.431H1078.72M904.085 472.431L924.057 442.202M904.085 472.431H729.445M904.085 472.431L882.462 505.154M1078.72 472.431L1092.04 442.202M1078.72 472.431L1064.31 505.154M1078.72 472.431H1253.36M924.057 442.202H1092.04M924.057 442.202H756.077M924.057 442.202L942.564 414.195M1092.04 442.202L1104.38 414.195M1092.04 442.202H1260.02M975.778 363.928H1126.52M975.778 363.928L990.737 341.289M975.778 363.928H825.038M975.778 363.928L959.759 388.171M1126.52 363.928L1136.49 341.289M1126.52 363.928L1115.84 388.171M1126.52 363.928H1277.26M990.737 341.289H1136.49M990.737 341.289H844.983M990.737 341.289L1004.74 320.1M1136.49 341.289L1145.83 320.1M1136.49 341.289H1282.25M1030.21 281.546H1162.81M1030.21 281.546L1041.83 263.959M1030.21 281.546H897.616M1030.21 281.546L1017.87 300.225M1162.81 281.546L1170.55 263.959M1162.81 281.546L1154.58 300.225M1162.81 281.546H1295.4M1041.83 263.959H1170.55M1041.83 263.959H913.111M1041.83 263.959L1052.79 247.37M1170.55 263.959L1177.86 247.37M1170.55 263.959H1299.28M1072.95 216.866H1191.3M1072.95 216.866L1082.24 202.811M1072.95 216.866H954.599M1072.95 216.866L1063.15 231.698M1191.3 216.866L1197.49 202.811M1191.3 216.866L1184.77 231.698M1191.3 216.866H1309.65M1082.24 202.811H1197.49M1082.24 202.811H966.983M1082.24 202.811L1091.05 189.472M1197.49 202.811L1203.37 189.472M1197.49 202.811H1312.75M1107.39 164.736H1214.26M1107.39 164.736L1114.99 153.247M1107.39 164.736H1000.53M1107.39 164.736L1099.43 176.797M1214.26 164.736L1219.33 153.247M1214.26 164.736L1208.95 176.797M1214.26 164.736H1321.13M1114.99 153.247H1219.33M1114.99 153.247H1010.65M1114.99 153.247L1117.74 149.077L1122.23 142.289M1219.33 153.247L1224.15 142.289M1219.33 153.247H1323.66M1135.75 121.826H1233.16M1135.75 121.826L1142.07 112.26M1135.75 121.826H1038.33M1135.75 121.826L1130.82 129.285L1129.14 131.826M1233.16 121.826L1234.77 118.19L1237.38 112.26M1233.16 121.826L1228.76 131.826M1233.16 121.826H1330.58M1142.07 112.26L1142.84 111.092L1148.12 103.097M1142.07 112.26H1237.38M1142.07 112.26H1046.76M1237.38 112.26L1238.91 108.778L1239.42 107.629L1239.92 106.488L1241.41 103.097M1237.38 112.26H1332.69M1159.49 85.8898H1248.99M1159.49 85.8898L1162.19 81.804L1162.86 80.7958L1163.52 79.7916L1164.18 78.7937L1164.84 77.7999M1159.49 85.8898H1069.99M1159.49 85.8898L1153.93 94.3151M1248.99 85.8898L1251.68 79.7916L1252.12 78.7937L1252.56 77.7999M1248.99 85.8898L1245.28 94.3151M1248.99 85.8898H1338.5M1164.84 77.7999H1252.56M1164.84 77.7999H1077.12M1164.84 77.7999L1168.07 72.905L1168.71 71.9401L1169.98 70.0257M1252.56 77.7999L1254.71 72.905L1255.14 71.9401L1255.56 70.9804L1255.98 70.0257M1252.56 77.7999H1340.28M1179.67 55.3537H1262.45M1179.67 55.3537L1184.25 48.4238M1179.67 55.3537H1096.89M1179.67 55.3537L1178.5 57.1267L1176.72 59.8192L1174.92 62.5489M1262.45 55.3537L1262.06 56.2381L1259.68 61.6345L1259.28 62.5489M1262.45 55.3537L1265.5 48.4238M1262.45 55.3537H1345.22M1184.25 48.4238H1265.5M1184.25 48.4238H1103M1184.25 48.4238L1188.66 41.7446M1265.5 48.4238L1266.62 45.8902L1266.98 45.0532L1267.35 44.2204L1268.44 41.7446M1265.5 48.4238H1346.75M1197.03 29.0861H1274.02M1197.03 29.0861L1200.01 24.5648L1200.99 23.0829M1197.03 29.0861H1120.04M1197.03 29.0861L1195.5 31.3915L1194.99 32.1666L1194.48 32.9458L1192.92 35.3029M1274.02 29.0861L1274.35 28.3244L1275.02 26.8105L1275.68 25.3099L1276.66 23.0829M1274.02 29.0861L1272.66 32.1666L1272.32 32.9458L1271.63 34.5134L1271.28 35.3029M1274.02 29.0861H1351.01M1200.99 23.0829H1276.66M1200.99 23.0829L1204.35 17.9972L1204.83 17.283M1200.99 23.0829H1125.32M1276.66 23.0829L1276.99 22.3471L1277.31 21.6143L1277.63 20.8847L1277.95 20.1582L1278.9 17.9972L1279.22 17.283M1276.66 23.0829H1352.33M1635.54 621.818H1843.08M1635.54 621.818L1626.21 579.431M1635.54 621.818H1428M1635.54 621.818L1645.8 668.396M1843.08 621.818L1824.41 579.431M1843.08 621.818L1863.6 668.396M1843.08 621.818H2050.62M1626.21 579.431H1824.41M1626.21 579.431H1428M1626.21 579.431L1617.67 540.694M1824.41 579.431L1807.35 540.694M1824.41 579.431H2022.62M1602.64 472.431H1777.28M1602.64 472.431L1595.98 442.202M1602.64 472.431H1428M1602.64 472.431L1609.85 505.154M1777.28 472.431L1763.96 442.202M1777.28 472.431L1791.69 505.154M1777.28 472.431H1951.92M1595.98 442.202H1763.96M1595.98 442.202H1428M1595.98 442.202L1589.81 414.195M1763.96 442.202L1751.62 414.195M1763.96 442.202H1931.94M1578.74 363.928H1729.48M1578.74 363.928L1573.75 341.289M1578.74 363.928H1428M1578.74 363.928L1584.08 388.171M1729.48 363.928L1719.51 341.289M1729.48 363.928L1740.16 388.171M1729.48 363.928H1880.22M1573.75 341.289H1719.51M1573.75 341.289H1428M1573.75 341.289L1569.09 320.1M1719.51 341.289L1710.17 320.1M1719.51 341.289H1865.26M1560.6 281.546H1693.19M1560.6 281.546L1556.72 263.959M1560.6 281.546H1428M1560.6 281.546L1564.71 300.225M1693.19 281.546L1685.45 263.959M1693.19 281.546L1701.42 300.225M1693.19 281.546H1825.79M1556.72 263.959H1685.45M1556.72 263.959H1428M1556.72 263.959L1553.07 247.37M1685.45 263.959L1678.14 247.37M1685.45 263.959H1814.17M1546.35 216.866H1664.7M1546.35 216.866L1543.25 202.811M1546.35 216.866H1428M1546.35 216.866L1549.62 231.698M1664.7 216.866L1658.51 202.811M1664.7 216.866L1671.23 231.698M1664.7 216.866H1783.05M1543.25 202.811H1658.51M1543.25 202.811H1428M1543.25 202.811L1540.32 189.472M1658.51 202.811L1652.63 189.472M1658.51 202.811H1773.76M1534.87 164.736H1641.74M1534.87 164.736L1532.34 153.247M1534.87 164.736H1428M1534.87 164.736L1537.53 176.797M1641.74 164.736L1636.68 153.247M1641.74 164.736L1647.05 176.797M1641.74 164.736H1748.61M1532.34 153.247H1636.68M1532.34 153.247H1428M1532.34 153.247L1529.92 142.289M1636.68 153.247L1631.85 142.289M1636.68 153.247H1741.01M1525.42 121.826H1622.84M1525.42 121.826L1523.31 112.26M1525.42 121.826H1428M1525.42 121.826L1527.62 131.826M1622.84 121.826L1619.14 113.433L1618.62 112.26M1622.84 121.826L1627.24 131.826M1622.84 121.826H1720.25M1523.31 112.26L1523.05 111.092L1521.29 103.097M1523.31 112.26H1618.62M1523.31 112.26H1428M1618.62 112.26L1617.09 108.778L1616.58 107.629L1616.08 106.488L1614.59 103.097M1618.62 112.26H1713.93M1517.5 85.8898H1607.01M1517.5 85.8898L1515.72 77.7999M1517.5 85.8898H1428M1517.5 85.8898L1518.19 89.0085L1518.42 90.0591L1518.65 91.1148L1519.12 93.2428L1519.36 94.3151M1607.01 85.8898L1604.32 79.7916L1603.44 77.7999M1607.01 85.8898L1610.72 94.3151M1607.01 85.8898H1696.51M1515.72 77.7999H1603.44M1515.72 77.7999H1428M1515.72 77.7999L1514.01 70.0257M1603.44 77.7999L1601.29 72.905L1600.86 71.9401L1600.44 70.9804L1600.02 70.0257M1603.44 77.7999H1691.16M1510.78 55.3537H1593.55M1510.78 55.3537L1509.25 48.4238M1510.78 55.3537H1428M1510.78 55.3537L1512.36 62.5489M1593.55 55.3537L1593.94 56.2381L1596.32 61.6345L1596.72 62.5489M1593.55 55.3537L1590.5 48.4238M1593.55 55.3537H1676.33M1509.25 48.4238H1590.5M1509.25 48.4238H1428M1509.25 48.4238L1507.78 41.7446M1590.5 48.4238L1589.38 45.8902L1589.02 45.0532L1588.65 44.2204L1587.56 41.7446M1590.5 48.4238H1671.75M1504.99 29.0861H1581.98M1504.99 29.0861L1503.67 23.0829M1504.99 29.0861H1428M1504.99 29.0861L1506.36 35.3029M1581.98 29.0861L1581.65 28.3244L1580.98 26.8105L1580.65 26.0581L1579.99 24.5648L1579.66 23.8218L1579.34 23.0829M1581.98 29.0861L1583.34 32.1666L1583.68 32.9458L1584.37 34.5134L1584.72 35.3029M1581.98 29.0861H1658.97M1503.67 23.0829L1503.51 22.3471L1503.35 21.6143L1503.19 20.8847L1502.39 17.283M1503.67 23.0829H1579.34M1503.67 23.0829H1428M1579.34 23.0829H1655.01M1579.34 23.0829L1578.69 21.6143L1578.37 20.8847L1578.05 20.1582L1577.1 17.9972L1576.78 17.283M2465.71 621.818H2673.25M2465.71 621.818L2419.03 579.431M2465.71 621.818H2258.17M2465.71 621.818L2517 668.396M2673.25 621.818L2617.23 579.431M2673.25 621.818L2734.8 668.396M2673.25 621.818H2880.79M2419.03 579.431H2617.23M2419.03 579.431H2220.82M2419.03 579.431L2376.37 540.694M2617.23 579.431L2566.04 540.694M2617.23 579.431H2815.44M2301.19 472.431H2475.83M2301.19 472.431L2267.9 442.202M2301.19 472.431H2126.56M2301.19 472.431L2337.23 505.154M2475.83 472.431L2435.89 442.202M2475.83 472.431L2519.08 505.154M2475.83 472.431H2650.47M2267.9 442.202H2435.89M2267.9 442.202H2099.92M2267.9 442.202L2237.06 414.195M2435.89 442.202L2398.87 414.195M2435.89 442.202H2603.87M2181.7 363.928H2332.44M2181.7 363.928L2156.77 341.289M2181.7 363.928H2030.96M2181.7 363.928L2208.4 388.171M2332.44 363.928L2302.53 341.289M2332.44 363.928L2364.48 388.171M2332.44 363.928H2483.18M2156.77 341.289H2302.53M2156.77 341.289H2011.02M2156.77 341.289L2133.44 320.1M2302.53 341.289L2274.52 320.1M2302.53 341.289H2448.28M2090.98 281.546H2223.58M2090.98 281.546L2071.61 263.959M2090.98 281.546H1958.38M2090.98 281.546L2111.55 300.225M2223.58 281.546L2200.33 263.959M2223.58 281.546L2248.26 300.225M2223.58 281.546H2356.17M2071.61 263.959H2200.33M2071.61 263.959H1942.89M2071.61 263.959L2053.34 247.37M2200.33 263.959L2178.41 247.37M2200.33 263.959H2329.06M2019.75 216.866H2138.1M2019.75 216.866L2004.27 202.811M2019.75 216.866H1901.4M2019.75 216.866L2036.08 231.698M2138.1 216.866L2119.53 202.811M2138.1 216.866L2157.7 231.698M2138.1 216.866H2256.45M2004.27 202.811H2119.53M2004.27 202.811H1889.02M2004.27 202.811L1989.58 189.472M2119.53 202.811L2101.9 189.472M2119.53 202.811H2234.78M1962.34 164.736H2069.21M1962.34 164.736L1949.69 153.247M1962.34 164.736H1855.47M1962.34 164.736L1975.62 176.797M2069.21 164.736L2054.03 153.247M2069.21 164.736L2085.15 176.797M2069.21 164.736H2176.08M1949.69 153.247H2054.03M1949.69 153.247H1845.35M1949.69 153.247L1937.62 142.289M2054.03 153.247L2039.55 142.289M2054.03 153.247H2158.36M1915.09 121.826L1916.44 123.052L1917.8 124.285L1926.1 131.826M1915.09 121.826H2012.5M1915.09 121.826L1904.55 112.26M1915.09 121.826H1817.67M2012.5 121.826L1999.86 112.26M2012.5 121.826L2025.72 131.826M2012.5 121.826H2109.92M1904.55 112.26H1999.86M1904.55 112.26H1809.24M1904.55 112.26L1894.46 103.097M1999.86 112.26L1987.75 103.097M1999.86 112.26H2095.17M1875.51 85.8898H1965.01M1875.51 85.8898L1866.6 77.7999M1875.51 85.8898H1786.01M1875.51 85.8898L1884.79 94.3151M1965.01 85.8898L1958.28 80.7958L1954.32 77.7999M1965.01 85.8898L1976.15 94.3151M1965.01 85.8898H2054.52M1866.6 77.7999H1954.32M1866.6 77.7999H1778.88M1866.6 77.7999L1859.09 70.9804L1858.04 70.0257M1954.32 77.7999L1944.05 70.0257M1954.32 77.7999H2042.04M1841.88 55.3537H1924.66M1841.88 55.3537L1839.95 53.5962L1834.25 48.4238M1841.88 55.3537H1759.11M1841.88 55.3537L1843.84 57.1267L1847.8 60.7243L1849.81 62.5489M1924.66 55.3537L1915.5 48.4238M1924.66 55.3537L1928.18 58.0204L1930.56 59.8192L1934.17 62.5489M1924.66 55.3537H2007.44M1834.25 48.4238H1915.5M1834.25 48.4238H1753M1834.25 48.4238L1828.71 43.3907L1826.9 41.7446M1915.5 48.4238L1912.15 45.8902L1909.95 44.2204L1906.67 41.7446M1915.5 48.4238H1996.75M1812.96 29.0861H1889.95M1812.96 29.0861L1808.8 25.3099L1806.35 23.0829M1812.96 29.0861H1735.97M1812.96 29.0861L1819.8 35.3029M1889.95 29.0861L1883.97 24.5648L1882.99 23.8218L1882.01 23.0829M1889.95 29.0861L1894.02 32.1666L1898.16 35.3029M1889.95 29.0861H1966.94M1806.35 23.0829H1882.01M1806.35 23.0829L1803.12 20.1582L1801.54 18.7144L1800.74 17.9972L1799.96 17.283M1806.35 23.0829H1730.68M1882.01 23.0829H1957.68M1882.01 23.0829L1874.35 17.283M2939.83 442.202H2771.85M2939.83 442.202L2884.31 414.195M2939.83 442.202H2990.16M2939.83 442.202L2990.16 467.593M2784.67 363.928H2935.41M2784.67 363.928L2739.79 341.289M2784.67 363.928H2633.93M2784.67 363.928L2832.72 388.171M2935.41 363.928L2885.54 341.289M2935.41 363.928L2988.8 388.171M2935.41 363.928H2990.16M2739.79 341.289H2885.54M2739.79 341.289H2594.04M2739.79 341.289L2697.79 320.1M2885.54 341.289L2838.87 320.1M2885.54 341.289H2990.16M2621.36 281.546H2753.96M2621.36 281.546L2586.5 263.959M2621.36 281.546H2488.77M2621.36 281.546L2658.39 300.225M2753.96 281.546L2715.23 263.959M2753.96 281.546L2795.1 300.225M2753.96 281.546H2886.56M2586.5 263.959H2715.23M2586.5 263.959H2457.78M2586.5 263.959L2553.62 247.37M2715.23 263.959L2678.69 247.37M2715.23 263.959H2843.95M2493.15 216.866H2611.5M2493.15 216.866L2465.29 202.811M2493.15 216.866H2374.8M2493.15 216.866L2522.55 231.698M2611.5 216.866L2580.54 202.811M2611.5 216.866L2644.17 231.698M2611.5 216.866H2729.85M2465.29 202.811H2580.54M2465.29 202.811H2350.04M2465.29 202.811L2438.85 189.472M2580.54 202.811L2551.17 189.472M2580.54 202.811H2695.8M2389.82 164.736H2496.68M2389.82 164.736L2367.04 153.247M2389.82 164.736H2282.95M2389.82 164.736L2413.72 176.797M2496.68 164.736L2471.38 153.247M2496.68 164.736L2523.25 176.797M2496.68 164.736H2603.55M2367.04 153.247H2471.38M2367.04 153.247H2262.7M2367.04 153.247L2345.32 142.289M2471.38 153.247L2447.24 142.289M2471.38 153.247H2575.72M2304.76 121.826H2402.18M2304.76 121.826L2285.79 112.26M2304.76 121.826H2207.34M2304.76 121.826L2324.58 131.826M2402.18 121.826L2381.1 112.26M2402.18 121.826L2424.2 131.826M2402.18 121.826H2499.59M2285.79 112.26H2381.1M2285.79 112.26H2190.48M2285.79 112.26L2267.63 103.097M2381.1 112.26L2360.92 103.097M2381.1 112.26H2476.41M2233.52 85.8898H2323.02M2233.52 85.8898L2217.48 77.7999M2233.52 85.8898H2144.02M2233.52 85.8898L2250.22 94.3151M2323.02 85.8898L2305.21 77.7999M2323.02 85.8898L2341.58 94.3151M2323.02 85.8898H2412.53M2217.48 77.7999H2305.21M2217.48 77.7999H2129.76M2217.48 77.7999L2202.07 70.0257M2305.21 77.7999L2288.08 70.0257M2305.21 77.7999H2392.93M2172.99 55.3537H2255.77M2172.99 55.3537L2159.25 48.4238M2172.99 55.3537H2090.21M2172.99 55.3537L2176.51 57.1267L2178.28 58.0204L2187.25 62.5489M2255.77 55.3537L2240.5 48.4238M2255.77 55.3537L2271.62 62.5489M2255.77 55.3537H2338.54M2159.25 48.4238H2240.5M2159.25 48.4238H2078M2159.25 48.4238L2146.01 41.7446M2240.5 48.4238L2225.79 41.7446M2240.5 48.4238H2321.75M2120.92 29.0861H2197.91M2120.92 29.0861L2109.02 23.0829M2120.92 29.0861H2043.93M2120.92 29.0861L2133.24 35.3029M2197.91 29.0861L2187.95 24.5648L2186.32 23.8218L2184.69 23.0829M2197.91 29.0861L2211.6 35.3029M2197.91 29.0861H2274.9M2109.02 23.0829H2184.69M2109.02 23.0829L2098.94 17.9972L2097.52 17.283M2109.02 23.0829H2033.35M2184.69 23.0829H2260.36M2184.69 23.0829L2171.92 17.283M2966.55 216.866L2926.31 202.811M2966.55 216.866H2848.2M2966.55 216.866L2990.16 225.111M2966.55 216.866H2990.16M2926.31 202.811H2811.05M2926.31 202.811L2888.12 189.472M2926.31 202.811H2990.16M2817.29 164.736H2924.16M2817.29 164.736L2784.39 153.247M2817.29 164.736H2710.42M2817.29 164.736L2851.82 176.797M2924.16 164.736L2888.73 153.247M2924.16 164.736L2961.35 176.797M2924.16 164.736H2990.16M2784.39 153.247H2888.73M2784.39 153.247H2680.05M2784.39 153.247L2753.02 142.289M2888.73 153.247L2854.94 142.289M2888.73 153.247H2990.16M2694.43 121.826H2791.85M2694.43 121.826L2667.03 112.26M2694.43 121.826H2597.01M2694.43 121.826L2723.06 131.826M2791.85 121.826L2762.34 112.26M2791.85 121.826L2822.68 131.826M2791.85 121.826H2889.26M2667.03 112.26H2762.34M2667.03 112.26H2571.72M2667.03 112.26L2640.8 103.097M2762.34 112.26L2734.09 103.097M2762.34 112.26H2857.66M2591.53 85.8898H2681.03M2591.53 85.8898L2568.37 77.7999M2591.53 85.8898H2502.03M2591.53 85.8898L2615.65 94.3151M2681.03 85.8898L2656.09 77.7999M2681.03 85.8898L2707.01 94.3151M2681.03 85.8898H2770.54M2568.37 77.7999H2656.09M2568.37 77.7999H2480.65M2568.37 77.7999L2546.11 70.0257M2656.09 77.7999L2632.12 70.0257M2656.09 77.7999H2743.81M2504.1 55.3537H2586.87M2504.1 55.3537L2484.26 48.4238M2504.1 55.3537H2421.32M2504.1 55.3537L2524.7 62.5489M2586.87 55.3537L2565.51 48.4238M2586.87 55.3537L2609.06 62.5489M2586.87 55.3537H2669.65M2484.26 48.4238H2565.51M2484.26 48.4238H2403M2484.26 48.4238L2465.13 41.7446M2565.51 48.4238L2544.91 41.7446M2565.51 48.4238H2646.76M2428.89 29.0861H2505.88M2428.89 29.0861L2411.7 23.0829M2428.89 29.0861H2351.89M2428.89 29.0861L2446.69 35.3029M2505.88 29.0861L2487.37 23.0829M2505.88 29.0861L2525.05 35.3029M2505.88 29.0861H2582.87M2411.7 23.0829H2487.37M2411.7 23.0829L2395.09 17.283M2411.7 23.0829H2336.03M2487.37 23.0829H2563.04M2487.37 23.0829L2469.48 17.283M2949.54 85.8898L2919.25 77.7999M2949.54 85.8898H2860.04M2949.54 85.8898L2981.09 94.3151M2949.54 85.8898H2990.16M2919.25 77.7999H2831.53M2919.25 77.7999L2890.14 70.0257M2919.25 77.7999H2990.16M2835.2 55.3537H2917.98M2835.2 55.3537L2809.26 48.4238M2835.2 55.3537H2752.43M2835.2 55.3537L2862.15 62.5489M2917.98 55.3537L2890.51 48.4238M2917.98 55.3537L2946.51 62.5489M2917.98 55.3537H2990.16M2809.26 48.4238H2890.51M2809.26 48.4238H2728.01M2809.26 48.4238L2784.25 41.7446M2890.51 48.4238L2864.03 41.7446M2890.51 48.4238H2971.76M2736.85 29.0861H2813.84M2736.85 29.0861L2714.37 23.0829M2736.85 29.0861H2659.86M2736.85 29.0861L2760.13 35.3029M2813.84 29.0861L2790.04 23.0829M2813.84 29.0861L2838.49 35.3029M2813.84 29.0861H2890.83M2714.37 23.0829H2790.04M2714.37 23.0829L2692.66 17.283M2714.37 23.0829H2638.71M2790.04 23.0829H2865.71M2790.04 23.0829L2767.05 17.283M2838.49 35.3029L2864.03 41.7446M2838.49 35.3029H2916.85M2838.49 35.3029H2760.13M2890.83 29.0861L2865.71 23.0829M2890.83 29.0861L2916.85 35.3029M2890.83 29.0861H2967.82M2865.71 23.0829H2941.38M2865.71 23.0829L2841.44 17.283M2767.05 17.283H2692.66M2767.05 17.283H2841.44M2767.05 17.283L2744.82 11.6751M2916.85 35.3029L2943.81 41.7446M2916.85 35.3029H2990.16M2967.82 29.0861L2941.38 23.0829M2967.82 29.0861L2990.16 34.1558M2967.82 29.0861H2990.16M2941.38 23.0829L2915.83 17.283M2941.38 23.0829H2990.16M2841.44 17.283H2915.83M2841.44 17.283L2817.97 11.6751M2915.83 17.283L2891.13 11.6751M2915.83 17.283H2990.16M2864.03 41.7446H2943.81M2864.03 41.7446H2784.25M2971.76 48.4238L2943.81 41.7446M2971.76 48.4238L2990.16 52.8203M2971.76 48.4238H2990.16M2943.81 41.7446H2990.16M2784.25 41.7446H2704.47M2784.25 41.7446L2760.13 35.3029M2760.13 35.3029H2681.77M2946.51 62.5489L2976.15 70.0257M2946.51 62.5489H2862.15M2946.51 62.5489H2990.16M2990.41 55.3537H2990.16M2976.15 70.0257H2890.14M2976.15 70.0257L2990.16 73.5593M2976.15 70.0257H2990.16M2890.14 70.0257H2804.13M2890.14 70.0257L2862.15 62.5489M2862.15 62.5489H2777.79M2525.05 35.3029L2544.91 41.7446M2525.05 35.3029H2603.41M2525.05 35.3029H2446.69M2582.87 29.0861L2563.04 23.0829M2582.87 29.0861L2603.41 35.3029M2582.87 29.0861H2659.86M2563.04 23.0829H2638.71M2563.04 23.0829L2543.87 17.283M2469.48 17.283H2543.87M2469.48 17.283L2452.19 11.6751M2469.48 17.283H2395.09M2603.41 35.3029L2624.69 41.7446M2603.41 35.3029H2681.77M2659.86 29.0861L2638.71 23.0829M2659.86 29.0861L2681.77 35.3029M2638.71 23.0829L2618.27 17.283M2543.87 17.283H2618.27M2543.87 17.283L2525.35 11.6751M2681.77 35.3029L2704.47 41.7446M2692.66 17.283H2618.27M2692.66 17.283L2671.66 11.6751M2618.27 17.283L2598.5 11.6751M2544.91 41.7446H2624.69M2544.91 41.7446H2465.13M2646.76 48.4238L2624.69 41.7446M2646.76 48.4238L2669.65 55.3537M2646.76 48.4238H2728.01M2624.69 41.7446H2704.47M2465.13 41.7446H2385.35M2465.13 41.7446L2446.69 35.3029M2704.47 41.7446L2728.01 48.4238M2446.69 35.3029H2368.33M2669.65 55.3537L2693.42 62.5489M2669.65 55.3537H2752.43M2728.01 48.4238L2752.43 55.3537M2752.43 55.3537L2777.79 62.5489M2609.06 62.5489L2632.12 70.0257M2609.06 62.5489H2693.42M2609.06 62.5489H2524.7M2693.42 62.5489L2718.12 70.0257M2693.42 62.5489H2777.79M2777.79 62.5489L2804.13 70.0257M2632.12 70.0257H2718.12M2632.12 70.0257H2546.11M2743.81 77.7999L2718.12 70.0257M2743.81 77.7999L2770.54 85.8898M2743.81 77.7999H2831.53M2718.12 70.0257H2804.13M2546.11 70.0257H2460.1M2546.11 70.0257L2524.7 62.5489M2804.13 70.0257L2831.53 77.7999M2524.7 62.5489H2440.34M2770.54 85.8898L2798.37 94.3151M2770.54 85.8898H2860.04M2831.53 77.7999L2860.04 85.8898M2860.04 85.8898L2889.73 94.3151M2707.01 94.3151L2734.09 103.097M2707.01 94.3151H2798.37M2707.01 94.3151H2615.65M2798.37 94.3151L2827.39 103.097M2798.37 94.3151H2889.73M2889.73 94.3151L2920.68 103.097M2889.73 94.3151H2981.09M2981.09 94.3151H2990.16M2981.09 94.3151L2990.16 96.7375M2734.09 103.097H2827.39M2734.09 103.097H2640.8M2857.66 112.26L2827.39 103.097M2857.66 112.26L2889.26 121.826M2857.66 112.26H2952.96M2827.39 103.097H2920.68M2640.8 103.097H2547.51M2640.8 103.097L2615.65 94.3151M2920.68 103.097L2952.96 112.26M2920.68 103.097H2990.16M2615.65 94.3151H2524.3M2889.26 121.826L2922.3 131.826M2889.26 121.826H2986.68M2952.96 112.26L2986.68 121.826M2952.96 112.26H2990.16M2990.65 103.097H2990.16M2986.68 121.826L2990.16 122.814M2986.68 121.826H2990.16M2822.68 131.826L2854.94 142.289M2822.68 131.826H2922.3M2822.68 131.826H2723.06M2922.3 131.826L2956.87 142.289M2922.3 131.826H2990.16M2991 123.052L2990.16 122.814M2854.94 142.289H2956.87M2854.94 142.289H2753.02M2956.87 142.289H2990.16M2956.87 142.289L2990.16 152.366M2753.02 142.289H2651.09M2753.02 142.289L2723.06 131.826M2723.06 131.826H2623.44M2961.35 176.797H2851.82M2961.35 176.797L2990.16 186.14M2961.35 176.797H2990.16M2990.95 164.736H2990.16M2851.82 176.797H2742.3M2851.82 176.797L2888.12 189.472M2990.48 186.243L2990.16 186.14M2211.6 35.3029L2225.79 41.7446M2211.6 35.3029H2289.97M2211.6 35.3029H2133.24M2274.9 29.0861L2260.36 23.0829M2274.9 29.0861L2289.97 35.3029M2274.9 29.0861H2351.89M2260.36 23.0829H2336.03M2260.36 23.0829L2246.31 17.283M2171.92 17.283H2246.31M2171.92 17.283L2167.23 15.1581L2159.56 11.6751M2171.92 17.283H2097.52M2289.97 35.3029L2305.57 41.7446M2289.97 35.3029H2368.33M2351.89 29.0861L2336.03 23.0829M2351.89 29.0861L2368.33 35.3029M2336.03 23.0829L2320.7 17.283M2246.31 17.283H2320.7M2246.31 17.283L2232.72 11.6751M2368.33 35.3029L2385.35 41.7446M2395.09 17.283L2379.03 11.6751M2395.09 17.283H2320.7M2320.7 17.283L2318.82 16.5709L2315.08 15.1581L2305.88 11.6751M2225.79 41.7446H2305.57M2225.79 41.7446H2146.01M2321.75 48.4238L2305.57 41.7446M2321.75 48.4238L2338.54 55.3537M2321.75 48.4238H2403M2305.57 41.7446H2385.35M2146.01 41.7446H2066.23M2146.01 41.7446L2133.24 35.3029M2385.35 41.7446L2403 48.4238M2133.24 35.3029H2054.88M2338.54 55.3537L2355.98 62.5489M2338.54 55.3537H2421.32M2403 48.4238L2405.26 49.2752L2421.32 55.3537M2421.32 55.3537L2440.34 62.5489M2271.62 62.5489L2273.64 63.4684L2288.08 70.0257M2271.62 62.5489H2355.98M2271.62 62.5489H2187.25M2355.98 62.5489L2374.09 70.0257M2355.98 62.5489H2440.34M2440.34 62.5489L2460.1 70.0257M2288.08 70.0257H2374.09M2288.08 70.0257H2202.07M2392.93 77.7999L2374.09 70.0257M2392.93 77.7999L2412.53 85.8898M2392.93 77.7999H2480.65M2374.09 70.0257H2460.1M2202.07 70.0257H2116.07M2202.07 70.0257L2187.25 62.5489M2460.1 70.0257L2480.65 77.7999M2187.25 62.5489H2102.89M2412.53 85.8898L2432.94 94.3151M2412.53 85.8898H2502.03M2480.65 77.7999L2502.03 85.8898M2502.03 85.8898L2524.3 94.3151M2341.58 94.3151L2360.92 103.097M2341.58 94.3151H2432.94M2341.58 94.3151H2250.22M2432.94 94.3151L2454.22 103.097M2432.94 94.3151H2524.3M2524.3 94.3151L2547.51 103.097M2360.92 103.097H2454.22M2360.92 103.097H2267.63M2476.41 112.26L2454.22 103.097M2476.41 112.26L2499.59 121.826M2476.41 112.26H2571.72M2454.22 103.097H2547.51M2267.63 103.097H2174.34M2267.63 103.097L2250.22 94.3151M2547.51 103.097L2571.72 112.26M2250.22 94.3151H2158.86M2499.59 121.826L2523.82 131.826M2499.59 121.826H2597.01M2571.72 112.26L2597.01 121.826M2597.01 121.826L2623.44 131.826M2424.2 131.826L2447.24 142.289M2424.2 131.826H2523.82M2424.2 131.826H2324.58M2523.82 131.826L2549.17 142.289M2523.82 131.826H2623.44M2623.44 131.826L2651.09 142.289M2447.24 142.289H2549.17M2447.24 142.289H2345.32M2575.72 153.247L2549.17 142.289M2575.72 153.247L2603.55 164.736M2575.72 153.247H2680.05M2549.17 142.289H2651.09M2345.32 142.289H2243.39M2345.32 142.289L2324.58 131.826M2651.09 142.289L2680.05 153.247M2324.58 131.826H2224.96M2603.55 164.736L2632.77 176.797M2603.55 164.736H2710.42M2680.05 153.247L2710.42 164.736M2710.42 164.736L2742.3 176.797M2523.25 176.797L2551.17 189.472M2523.25 176.797H2632.77M2523.25 176.797H2413.72M2632.77 176.797L2663.48 189.472M2632.77 176.797H2742.3M2742.3 176.797L2775.8 189.472M2551.17 189.472H2663.48M2551.17 189.472H2438.85M2695.8 202.811L2663.48 189.472M2695.8 202.811L2729.85 216.866M2695.8 202.811H2811.05M2663.48 189.472H2775.8M2438.85 189.472H2326.53M2438.85 189.472L2413.72 176.797M2775.8 189.472L2811.05 202.811M2775.8 189.472H2888.12M2413.72 176.797H2304.2M2729.85 216.866L2765.78 231.698M2729.85 216.866H2848.2M2811.05 202.811L2848.2 216.866M2888.12 189.472H2990.16M2848.2 216.866L2887.4 231.698M2644.17 231.698L2678.69 247.37M2644.17 231.698H2765.78M2644.17 231.698H2522.55M2765.78 231.698L2803.76 247.37M2765.78 231.698H2887.4M2887.4 231.698L2928.82 247.37M2887.4 231.698H2990.16M2678.69 247.37H2803.76M2678.69 247.37H2553.62M2843.95 263.959L2803.76 247.37M2843.95 263.959L2886.56 281.546M2843.95 263.959H2972.67M2803.76 247.37H2928.82M2553.62 247.37H2428.55M2553.62 247.37L2522.55 231.698M2928.82 247.37L2972.67 263.959M2928.82 247.37H2990.16M2522.55 231.698H2400.93M2886.56 281.546L2931.81 300.225M2886.56 281.546H2990.16M2972.67 263.959H2990.16M2972.67 263.959L2990.16 270.576M2795.1 300.225L2838.87 320.1M2795.1 300.225H2931.81M2795.1 300.225H2658.39M2931.81 300.225L2979.96 320.1M2931.81 300.225H2990.16M2838.87 320.1H2979.96M2838.87 320.1H2697.79M2979.96 320.1L2990.16 324.308M2979.96 320.1H2990.16M2697.79 320.1H2556.7M2697.79 320.1L2658.39 300.225M2658.39 300.225H2521.68M2988.8 388.171H2832.72M2988.8 388.171H2990.16M2988.8 388.171L2990.16 388.786M2832.72 388.171H2676.64M2832.72 388.171L2884.31 414.195M1898.16 35.3029L1901.32 37.6909L1902.38 38.4949L1906.67 41.7446M1898.16 35.3029H1976.52M1898.16 35.3029H1819.8M1966.94 29.0861L1959.97 24.5648L1957.68 23.0829M1966.94 29.0861L1975.31 34.5134L1976.52 35.3029M1966.94 29.0861H2043.93M1957.68 23.0829H2033.35M1957.68 23.0829L1948.74 17.283M1874.35 17.283H1948.74M1874.35 17.283L1871.54 15.1581L1866.94 11.6751M1874.35 17.283H1799.96M1976.52 35.3029L1978.97 36.8911L1986.46 41.7446M1976.52 35.3029H2054.88M2043.93 29.0861L2033.35 23.0829M2043.93 29.0861L2054.88 35.3029M2033.35 23.0829L2025.65 18.7144L2023.13 17.283M1948.74 17.283H2023.13M1948.74 17.283L1940.1 11.6751M2054.88 35.3029L2066.23 41.7446M2097.52 17.283L2096.11 16.5709L2086.41 11.6751M2097.52 17.283H2023.13M2023.13 17.283L2019.39 15.1581L2013.25 11.6751M1906.67 41.7446H1986.46M1906.67 41.7446H1826.9M1996.75 48.4238L1986.46 41.7446M1996.75 48.4238L2007.44 55.3537M1996.75 48.4238H2078M1986.46 41.7446H2066.23M1826.9 41.7446H1747.12M1826.9 41.7446L1819.8 35.3029M2066.23 41.7446L2078 48.4238M1819.8 35.3029H1741.44M2007.44 55.3537L2014.32 59.8192L2015.72 60.7243L2018.53 62.5489M2007.44 55.3537H2090.21M2078 48.4238L2090.21 55.3537M2090.21 55.3537L2102.89 62.5489M1934.17 62.5489L1944.05 70.0257M1934.17 62.5489H2018.53M1934.17 62.5489H1849.81M2018.53 62.5489L2030.06 70.0257M2018.53 62.5489H2102.89M2102.89 62.5489L2116.07 70.0257M1944.05 70.0257H2030.06M1944.05 70.0257H1858.04M2042.04 77.7999L2034.5 72.905L2033.01 71.9401L2030.06 70.0257M2042.04 77.7999L2054.52 85.8898M2042.04 77.7999H2129.76M2030.06 70.0257H2116.07M1858.04 70.0257H1772.03M1858.04 70.0257L1849.81 62.5489M2116.07 70.0257L2129.76 77.7999M1849.81 62.5489H1765.45M2054.52 85.8898L2067.51 94.3151M2054.52 85.8898H2144.02M2129.76 77.7999L2144.02 85.8898M2144.02 85.8898L2158.86 94.3151M1976.15 94.3151L1981.89 98.6598L1983.34 99.761L1987.75 103.097M1976.15 94.3151H2067.51M1976.15 94.3151H1884.79M2067.51 94.3151L2081.05 103.097M2067.51 94.3151H2158.86M2158.86 94.3151L2174.34 103.097M1987.75 103.097H2081.05M1987.75 103.097H1894.46M2095.17 112.26L2081.05 103.097M2095.17 112.26L2109.92 121.826M2095.17 112.26H2190.48M2081.05 103.097H2174.34M1894.46 103.097H1801.17M1894.46 103.097L1892.01 100.867L1884.79 94.3151M2174.34 103.097L2190.48 112.26M1884.79 94.3151H1793.43M2109.92 121.826L2125.34 131.826M2109.92 121.826H2207.34M2190.48 112.26L2207.34 121.826M2207.34 121.826L2224.96 131.826M2025.72 131.826L2039.55 142.289M2025.72 131.826H2125.34M2025.72 131.826H1926.1M2125.34 131.826L2141.47 142.289M2125.34 131.826H2224.96M2224.96 131.826L2243.39 142.289M2039.55 142.289H2141.47M2039.55 142.289H1937.62M2158.36 153.247L2141.47 142.289M2158.36 153.247L2176.08 164.736M2158.36 153.247H2262.7M2141.47 142.289H2243.39M1937.62 142.289H1835.7M1937.62 142.289L1926.1 131.826M2243.39 142.289L2262.7 153.247M1926.1 131.826H1826.48M2176.08 164.736L2194.67 176.797M2176.08 164.736H2282.95M2262.7 153.247L2282.95 164.736M2282.95 164.736L2304.2 176.797M2085.15 176.797L2101.9 189.472M2085.15 176.797H2194.67M2085.15 176.797H1975.62M2194.67 176.797L2214.22 189.472M2194.67 176.797H2304.2M2304.2 176.797L2326.53 189.472M2101.9 189.472H2214.22M2101.9 189.472H1989.58M2234.78 202.811L2214.22 189.472M2234.78 202.811L2256.45 216.866M2234.78 202.811H2350.04M2214.22 189.472H2326.53M1989.58 189.472H1877.27M1989.58 189.472L1975.62 176.797M2326.53 189.472L2350.04 202.811M1975.62 176.797H1866.1M2256.45 216.866L2279.32 231.698M2256.45 216.866H2374.8M2350.04 202.811L2374.8 216.866M2374.8 216.866L2400.93 231.698M2157.7 231.698L2178.41 247.37M2157.7 231.698H2279.32M2157.7 231.698H2036.08M2279.32 231.698L2303.48 247.37M2279.32 231.698H2400.93M2400.93 231.698L2428.55 247.37M2178.41 247.37H2303.48M2178.41 247.37H2053.34M2329.06 263.959L2303.48 247.37M2329.06 263.959L2356.17 281.546M2329.06 263.959H2457.78M2303.48 247.37H2428.55M2053.34 247.37H1928.27M2053.34 247.37L2036.08 231.698M2428.55 247.37L2457.78 263.959M2036.08 231.698H1914.47M2356.17 281.546L2384.97 300.225M2356.17 281.546H2488.77M2457.78 263.959L2488.77 281.546M2488.77 281.546L2521.68 300.225M2248.26 300.225L2274.52 320.1M2248.26 300.225H2384.97M2248.26 300.225H2111.55M2384.97 300.225L2415.61 320.1M2384.97 300.225H2521.68M2521.68 300.225L2556.7 320.1M2274.52 320.1H2415.61M2274.52 320.1H2133.44M2448.28 341.289L2415.61 320.1M2448.28 341.289L2483.18 363.928M2448.28 341.289H2594.04M2415.61 320.1H2556.7M2133.44 320.1H1992.35M2133.44 320.1L2111.55 300.225M2556.7 320.1L2594.04 341.289M2111.55 300.225H1974.84M2483.18 363.928L2520.56 388.171M2483.18 363.928H2633.93M2594.04 341.289L2633.93 363.928M2633.93 363.928L2676.64 388.171M2364.48 388.171L2398.87 414.195M2364.48 388.171H2520.56M2364.48 388.171H2208.4M2520.56 388.171L2560.68 414.195M2520.56 388.171H2676.64M2676.64 388.171L2722.5 414.195M2398.87 414.195H2560.68M2398.87 414.195H2237.06M2603.87 442.202L2560.68 414.195M2603.87 442.202L2650.47 472.431M2603.87 442.202H2771.85M2560.68 414.195H2722.5M2237.06 414.195H2075.25M2237.06 414.195L2208.4 388.171M2722.5 414.195L2771.85 442.202M2722.5 414.195H2884.31M2208.4 388.171H2052.32M2650.47 472.431L2700.92 505.154M2650.47 472.431H2825.11M2771.85 442.202L2825.11 472.431M2884.31 414.195H2990.16M2825.11 472.431L2882.77 505.154M2825.11 472.431H2990.16M2519.08 505.154L2566.04 540.694M2519.08 505.154H2700.92M2519.08 505.154H2337.23M2700.92 505.154L2755.72 540.694M2700.92 505.154H2882.77M2882.77 505.154L2945.39 540.694M2882.77 505.154H2990.16M2566.04 540.694H2755.72M2566.04 540.694H2376.37M2815.44 579.431L2755.72 540.694M2815.44 579.431L2880.79 621.818M2815.44 579.431H2990.16M2755.72 540.694H2945.39M2376.37 540.694H2186.7M2376.37 540.694L2337.23 505.154M2945.39 540.694H2990.16M2945.39 540.694L2990.16 566.102M2337.23 505.154H2155.38M2880.79 621.818L2952.6 668.396M2880.79 621.818H2990.16M2734.8 668.396L2802.76 719.817M2734.8 668.396H2952.6M2734.8 668.396H2517M2952.6 668.396L2990.16 692.756M2952.6 668.396H2990.16M2802.76 719.817H2573.63M2802.76 719.817L2990.16 719.816M2573.63 719.817H2344.5M2573.63 719.817L2517 668.396M2517 668.396H2299.2M1584.72 35.3029L1585.07 36.0954L1585.42 36.8911L1585.77 37.6909L1586.13 38.4949L1587.2 40.9263L1587.56 41.7446M1584.72 35.3029H1663.08M1584.72 35.3029H1506.36M1658.97 29.0861L1655.99 24.5648L1655.01 23.0829M1658.97 29.0861L1661.52 32.9458L1663.08 35.3029M1658.97 29.0861H1735.97M1655.01 23.0829H1730.68M1655.01 23.0829L1652.12 18.7144L1651.17 17.283M1576.78 17.283L1576.47 16.5709L1575.23 13.7556L1574.31 11.6751M1576.78 17.283H1651.17M1576.78 17.283H1502.39M1663.08 35.3029L1663.6 36.0954L1664.13 36.8911L1664.66 37.6909L1665.19 38.4949L1667.34 41.7446M1663.08 35.3029H1741.44M1735.97 29.0861L1731.98 24.5648L1730.68 23.0829M1735.97 29.0861L1741.44 35.3029M1730.68 23.0829L1728.1 20.1582L1726.19 17.9972L1725.57 17.283M1651.17 17.283L1650.71 16.5709L1649.77 15.1581L1648.84 13.7556L1648.38 13.059L1647.47 11.6751M1651.17 17.283H1725.57M1741.44 35.3029L1745.68 40.112L1747.12 41.7446M1799.96 17.283L1795.31 13.059L1793.78 11.6751M1799.96 17.283H1725.57M1725.57 17.283L1721.24 12.3655L1720.62 11.6751M1587.56 41.7446H1667.34M1587.56 41.7446H1507.78M1671.75 48.4238L1667.34 41.7446M1671.75 48.4238L1676.33 55.3537M1671.75 48.4238H1753M1667.34 41.7446H1747.12M1507.78 41.7446H1428M1507.78 41.7446L1506.36 35.3029M1747.12 41.7446L1753 48.4238M1506.36 35.3029H1428M1676.33 55.3537L1677.5 57.1267L1679.28 59.8192L1681.08 62.5489M1676.33 55.3537H1759.11M1753 48.4238L1753.75 49.2752L1759.11 55.3537M1759.11 55.3537L1759.89 56.2381L1760.67 57.1267L1761.46 58.0204L1765.45 62.5489M1596.72 62.5489L1600.02 70.0257M1596.72 62.5489H1681.08M1596.72 62.5489H1512.36M1681.08 62.5489L1686.02 70.0257M1681.08 62.5489H1765.45M1765.45 62.5489L1770.36 68.1289L1771.2 69.0753L1772.03 70.0257M1600.02 70.0257H1686.02M1600.02 70.0257H1514.01M1691.16 77.7999L1691.82 78.7937L1692.48 79.7916L1693.14 80.7958L1696.51 85.8898M1691.16 77.7999L1688.57 73.8741L1687.93 72.905L1687.29 71.9401L1686.02 70.0257M1691.16 77.7999H1778.88M1686.02 70.0257H1772.03M1514.01 70.0257H1428M1514.01 70.0257L1512.36 62.5489M1772.03 70.0257L1778.88 77.7999M1512.36 62.5489H1428M1696.51 85.8898L1701.37 93.2428L1702.07 94.3151M1696.51 85.8898H1786.01M1778.88 77.7999L1780.64 79.7916L1786.01 85.8898M1786.01 85.8898L1788.76 89.0085L1793.43 94.3151M1610.72 94.3151L1612.63 98.6598L1613.11 99.761L1614.59 103.097M1610.72 94.3151H1702.07M1610.72 94.3151H1519.36M1702.07 94.3151L1707.88 103.097M1702.07 94.3151H1793.43M1793.43 94.3151L1801.17 103.097M1614.59 103.097H1707.88M1614.59 103.097H1521.29M1713.93 112.26L1707.88 103.097M1713.93 112.26L1720.25 121.826M1713.93 112.26H1809.24M1707.88 103.097H1801.17M1521.29 103.097H1428M1521.29 103.097L1520.8 100.867L1519.83 96.4761L1519.36 94.3151M1801.17 103.097L1809.24 112.26M1519.36 94.3151H1428M1720.25 121.826L1725.18 129.285L1726.86 131.826M1720.25 121.826H1817.67M1809.24 112.26L1817.67 121.826M1817.67 121.826L1822.03 126.771L1826.48 131.826M1627.24 131.826L1631.85 142.289M1627.24 131.826H1726.86M1627.24 131.826H1527.62M1726.86 131.826L1733.77 142.289M1726.86 131.826H1826.48M1826.48 131.826L1835.7 142.289M1631.85 142.289H1733.77M1631.85 142.289H1529.92M1741.01 153.247L1739.17 150.459L1733.77 142.289M1741.01 153.247L1748.61 164.736M1741.01 153.247H1845.35M1733.77 142.289H1835.7M1529.92 142.289H1428M1529.92 142.289L1527.62 131.826M1835.7 142.289L1845.35 153.247M1527.62 131.826H1428M1748.61 164.736L1756.57 176.797M1748.61 164.736H1855.47M1845.35 153.247L1855.47 164.736M1855.47 164.736L1866.1 176.797M1647.05 176.797L1652.63 189.472M1647.05 176.797H1756.57M1647.05 176.797H1537.53M1756.57 176.797L1764.95 189.472M1756.57 176.797H1866.1M1866.1 176.797L1877.27 189.472M1652.63 189.472H1764.95M1652.63 189.472H1540.32M1773.76 202.811L1764.95 189.472M1773.76 202.811L1783.05 216.866M1773.76 202.811H1889.02M1764.95 189.472H1877.27M1540.32 189.472H1428M1540.32 189.472L1537.87 178.347L1537.53 176.797M1877.27 189.472L1889.02 202.811M1537.53 176.797H1428M1783.05 216.866L1792.85 231.698M1783.05 216.866H1901.4M1889.02 202.811L1898.24 213.283L1901.4 216.866M1901.4 216.866L1914.47 231.698M1671.23 231.698L1678.14 247.37M1671.23 231.698H1792.85M1671.23 231.698H1549.62M1792.85 231.698L1803.21 247.37M1792.85 231.698H1914.47M1914.47 231.698L1928.27 247.37M1678.14 247.37H1803.21M1678.14 247.37H1553.07M1814.17 263.959L1803.21 247.37M1814.17 263.959L1825.79 281.546M1814.17 263.959H1942.89M1803.21 247.37H1928.27M1553.07 247.37H1428M1553.07 247.37L1549.62 231.698M1928.27 247.37L1942.89 263.959M1549.62 231.698H1428M1825.79 281.546L1838.13 300.225M1825.79 281.546H1958.38M1942.89 263.959L1958.38 281.546M1958.38 281.546L1974.84 300.225M1701.42 300.225L1710.17 320.1M1701.42 300.225H1838.13M1701.42 300.225H1564.71M1838.13 300.225L1851.26 320.1M1838.13 300.225H1974.84M1974.84 300.225L1992.35 320.1M1710.17 320.1H1851.26M1710.17 320.1H1569.09M1865.26 341.289L1851.26 320.1M1865.26 341.289L1880.22 363.928M1865.26 341.289H2011.02M1851.26 320.1H1992.35M1569.09 320.1H1428M1569.09 320.1L1564.71 300.225M1992.35 320.1L2011.02 341.289M1564.71 300.225H1428M1880.22 363.928L1896.24 388.171M1880.22 363.928H2030.96M2011.02 341.289L2030.96 363.928M2030.96 363.928L2052.32 388.171M1740.16 388.171L1751.62 414.195M1740.16 388.171H1896.24M1740.16 388.171H1584.08M1896.24 388.171L1913.44 414.195M1896.24 388.171H2052.32M2052.32 388.171L2075.25 414.195M1751.62 414.195H1913.44M1751.62 414.195H1589.81M1931.94 442.202L1913.44 414.195M1931.94 442.202L1951.92 472.431M1931.94 442.202H2099.92M1913.44 414.195H2075.25M1589.81 414.195H1428M1589.81 414.195L1584.08 388.171M2075.25 414.195L2099.92 442.202M1584.08 388.171H1428M1951.92 472.431L1973.54 505.154M1951.92 472.431H2126.56M2099.92 442.202L2126.56 472.431M2126.56 472.431L2155.38 505.154M1791.69 505.154L1807.35 540.694M1791.69 505.154H1973.54M1791.69 505.154H1609.85M1973.54 505.154L1997.02 540.694M1973.54 505.154H2155.38M2155.38 505.154L2186.7 540.694M1807.35 540.694H1997.02M1807.35 540.694H1617.67M2022.62 579.431L1997.02 540.694M2022.62 579.431L2050.62 621.818M2022.62 579.431H2220.82M1997.02 540.694H2186.7M1617.67 540.694H1428M1617.67 540.694L1609.85 505.154M2186.7 540.694L2220.82 579.431M1609.85 505.154H1428M2050.62 621.818L2081.4 668.396M2050.62 621.818H2258.17M2220.82 579.431L2258.17 621.818M2258.17 621.818L2299.2 668.396M1863.6 668.396L1886.25 719.817M1863.6 668.396H2081.4M1863.6 668.396H1645.8M2081.4 668.396L2115.38 719.817M2081.4 668.396H2299.2M2299.2 668.396L2344.5 719.817M2115.38 719.817H1886.25M2115.38 719.817H2344.5M1886.25 719.817H1657.13M1657.13 719.817H1428M1657.13 719.817L1645.8 668.396M1645.8 668.396H1428M1271.28 35.3029L1270.93 36.0954L1270.58 36.8911L1270.23 37.6909L1269.87 38.4949L1269.16 40.112L1268.8 40.9263L1268.44 41.7446M1271.28 35.3029H1349.64M1271.28 35.3029H1192.92M1351.01 29.0861L1352.33 23.0829M1351.01 29.0861L1349.64 35.3029M1351.01 29.0861H1428M1352.33 23.0829L1352.49 22.3471L1352.66 21.6143L1352.81 20.8847L1353.61 17.283M1352.33 23.0829H1428M1279.22 17.283L1279.53 16.5709L1280.77 13.7556L1281.69 11.6751M1279.22 17.283H1353.61M1279.22 17.283H1204.83M1349.64 35.3029L1349.46 36.0954L1349.29 36.8911L1349.11 37.6909L1348.22 41.7446M1349.64 35.3029H1428M1428 29.0861V23.0829M1428 29.0861V35.3029M1428 23.0829V17.283M1353.61 17.283H1428M1353.61 17.283L1354.08 15.1581L1354.23 14.4553L1354.84 11.6751M1428 35.3029V41.7446M1502.39 17.283L1501.92 15.1581L1501.77 14.4553L1501.62 13.7556L1501.46 13.059L1501.31 12.3655L1501.16 11.6751M1502.39 17.283H1428M1428 17.283V11.6751M1268.44 41.7446H1348.22M1268.44 41.7446H1188.66M1346.75 48.4238L1346.56 49.2752L1346.37 50.1318L1345.22 55.3537M1346.75 48.4238L1348.22 41.7446M1346.75 48.4238H1428M1348.22 41.7446H1428M1188.66 41.7446H1108.88M1188.66 41.7446L1189.74 40.112L1190.28 39.3019L1190.81 38.4949L1191.34 37.6909L1191.87 36.8911L1192.4 36.0954L1192.92 35.3029M1428 41.7446V48.4238M1192.92 35.3029H1114.56M1345.22 55.3537L1343.64 62.5489M1345.22 55.3537H1428M1428 48.4238V55.3537M1428 55.3537V62.5489M1259.28 62.5489L1255.98 70.0257M1259.28 62.5489H1343.64M1259.28 62.5489H1174.92M1343.64 62.5489L1341.99 70.0257M1343.64 62.5489H1428M1428 62.5489V70.0257M1255.98 70.0257H1341.99M1255.98 70.0257H1169.98M1340.28 77.7999L1341.99 70.0257M1340.28 77.7999L1338.5 85.8898M1340.28 77.7999H1428M1341.99 70.0257H1428M1169.98 70.0257H1083.97M1169.98 70.0257L1174.92 62.5489M1428 70.0257V77.7999M1174.92 62.5489H1090.55M1338.5 85.8898L1337.81 89.0085L1337.11 92.1757L1336.64 94.3151M1338.5 85.8898H1428M1428 77.7999V85.8898M1428 85.8898V94.3151M1245.28 94.3151L1243.37 98.6598L1242.89 99.761L1241.41 103.097M1245.28 94.3151H1336.64M1245.28 94.3151H1153.93M1336.64 94.3151L1336.17 96.4761L1335.2 100.867L1334.71 103.097M1336.64 94.3151H1428M1428 94.3151V103.097M1241.41 103.097H1334.71M1241.41 103.097H1148.12M1332.69 112.26L1332.95 111.092L1334.71 103.097M1332.69 112.26L1330.58 121.826M1332.69 112.26H1428M1334.71 103.097H1428M1148.12 103.097H1054.83M1148.12 103.097L1153.93 94.3151M1428 103.097V112.26M1153.93 94.3151H1062.57M1330.58 121.826L1328.38 131.826M1330.58 121.826H1428M1428 112.26V121.826M1428 121.826V131.826M1228.76 131.826L1224.15 142.289M1228.76 131.826H1328.38M1228.76 131.826H1129.14M1328.38 131.826L1326.08 142.289M1328.38 131.826H1428M1428 131.826V142.289M1224.15 142.289H1326.08M1224.15 142.289H1122.23M1323.66 153.247L1326.08 142.289M1323.66 153.247L1321.13 164.736M1323.66 153.247H1428M1326.08 142.289H1428M1122.23 142.289H1020.3M1122.23 142.289L1129.14 131.826M1428 142.289V153.247M1129.14 131.826H1029.52M1321.13 164.736L1318.47 176.797M1321.13 164.736H1428M1428 153.247V164.736M1428 164.736V176.797M1208.95 176.797L1203.37 189.472M1208.95 176.797H1318.47M1208.95 176.797H1099.43M1318.47 176.797L1315.68 189.472M1318.47 176.797H1428M1428 176.797V189.472M1203.37 189.472H1315.68M1203.37 189.472H1091.05M1312.75 202.811L1315.68 189.472M1312.75 202.811L1309.65 216.866M1312.75 202.811H1428M1315.68 189.472H1428M1091.05 189.472H978.733M1091.05 189.472L1099.43 176.797M1428 189.472V202.811M1099.43 176.797H989.901M1309.65 216.866L1306.38 231.698M1309.65 216.866H1428M1428 202.811V216.866M1428 216.866V231.698M1184.77 231.698L1177.86 247.37M1184.77 231.698H1306.38M1184.77 231.698H1063.15M1306.38 231.698L1302.93 247.37M1306.38 231.698H1428M1428 231.698V247.37M1177.86 247.37H1302.93M1177.86 247.37H1052.79M1299.28 263.959L1302.93 247.37M1299.28 263.959L1295.4 281.546M1299.28 263.959H1428M1302.93 247.37H1428M1052.79 247.37H927.725M1052.79 247.37L1063.15 231.698M1428 247.37V263.959M1063.15 231.698H941.533M1295.4 281.546L1291.29 300.225M1295.4 281.546H1428M1428 263.959V281.546M1428 281.546V300.225M1154.58 300.225L1145.83 320.1M1154.58 300.225H1291.29M1154.58 300.225H1017.87M1291.29 300.225L1286.91 320.1M1291.29 300.225H1428M1428 300.225V320.1M1145.83 320.1H1286.91M1145.83 320.1H1004.74M1282.25 341.289L1286.91 320.1M1282.25 341.289L1277.26 363.928M1282.25 341.289H1428M1286.91 320.1H1428M1004.74 320.1H863.651M1004.74 320.1L1017.87 300.225M1428 320.1V341.289M1017.87 300.225H881.16M1277.26 363.928L1271.92 388.171M1277.26 363.928H1428M1428 341.289V363.928M1428 363.928V388.171M1115.84 388.171L1104.38 414.195M1115.84 388.171H1271.92M1115.84 388.171H959.759M1271.92 388.171L1266.19 414.195M1271.92 388.171H1428M1428 388.171V414.195M1104.38 414.195H1266.19M1104.38 414.195H942.564M1260.02 442.202L1266.19 414.195M1260.02 442.202L1253.36 472.431M1260.02 442.202H1428M1266.19 414.195H1428M942.564 414.195H780.752M942.564 414.195L959.759 388.171M1428 414.195V442.202M959.759 388.171H803.679M1253.36 472.431L1246.15 505.154M1253.36 472.431H1428M1428 442.202V472.431M1428 472.431V505.154M1064.31 505.154L1048.65 540.694M1064.31 505.154H1246.15M1064.31 505.154H882.462M1246.15 505.154L1238.33 540.694M1246.15 505.154H1428M1428 505.154V540.694M1048.65 540.694H1238.33M1048.65 540.694H858.979M1229.79 579.431L1238.33 540.694M1229.79 579.431L1220.46 621.818M1229.79 579.431H1428M1238.33 540.694H1428M858.979 540.694H669.305M858.979 540.694L882.462 505.154M1428 540.694V579.431M882.462 505.154H700.617M1220.46 621.818L1210.2 668.396M1220.46 621.818H1428M1428 579.431V621.818M1428 621.818V668.396M992.4 668.396L969.749 719.817M992.4 668.396H1210.2M992.4 668.396H774.6M1210.2 668.396L1198.87 719.817M1210.2 668.396H1428M1428 668.396V719.817M1198.87 719.817H969.749M1198.87 719.817H1428M969.749 719.817H740.623M740.623 719.817H511.496M740.623 719.817L774.6 668.396M774.6 668.396H556.799M957.837 35.3029L953.62 38.4949L949.325 41.7446M957.837 35.3029H1036.2M957.837 35.3029H879.477M1043.04 29.0861L1049.66 23.0829M1043.04 29.0861L1036.2 35.3029M1043.04 29.0861H1120.04M1049.66 23.0829H1125.32M1049.66 23.0829L1054.47 18.7144L1056.04 17.283M981.651 17.283H1056.04M981.651 17.283L984.459 15.1581L989.061 11.6751M981.651 17.283H907.259M1036.2 35.3029L1029.1 41.7446M1036.2 35.3029H1114.56M1120.04 29.0861L1125.32 23.0829M1120.04 29.0861L1114.56 35.3029M1125.32 23.0829L1127.9 20.1582L1129.81 17.9972L1130.43 17.283M1056.04 17.283H1130.43M1056.04 17.283L1060.69 13.059L1062.22 11.6751M1114.56 35.3029L1110.32 40.112L1108.88 41.7446M1204.83 17.283L1205.29 16.5709L1206.23 15.1581L1207.62 13.059L1208.53 11.6751M1204.83 17.283H1130.43M1130.43 17.283L1131.06 16.5709L1132.31 15.1581L1135.37 11.6751M949.325 41.7446H1029.1M949.325 41.7446H869.545M1021.75 48.4238L1022.68 47.5755L1023.61 46.7303L1027.29 43.3907L1029.1 41.7446M1021.75 48.4238L1016.05 53.5962L1014.12 55.3537M1021.75 48.4238H1103M1029.1 41.7446H1108.88M869.545 41.7446H789.766M869.545 41.7446L877.027 36.8911L879.477 35.3029M1108.88 41.7446L1103 48.4238M879.477 35.3029H801.116M1014.12 55.3537L1013.14 56.2381L1012.16 57.1267L1009.2 59.8192L1008.2 60.7243L1006.19 62.5489M1014.12 55.3537H1096.89M1103 48.4238L1102.25 49.2752L1096.89 55.3537M1096.89 55.3537L1096.11 56.2381L1095.33 57.1267L1094.54 58.0204L1090.55 62.5489M921.831 62.5489L911.951 70.0257M921.831 62.5489H1006.19M921.831 62.5489H837.47M1006.19 62.5489L997.959 70.0257M1006.19 62.5489H1090.55M1090.55 62.5489L1083.97 70.0257M911.951 70.0257H997.959M911.951 70.0257H825.943M989.398 77.7999L997.959 70.0257M989.398 77.7999L980.489 85.8898M989.398 77.7999H1077.12M997.959 70.0257H1083.97M825.943 70.0257H739.934M825.943 70.0257L837.47 62.5489M1083.97 70.0257L1077.12 77.7999M837.47 62.5489H753.107M980.489 85.8898L971.21 94.3151M980.489 85.8898H1069.99M1077.12 77.7999L1075.36 79.7916L1069.99 85.8898M1069.99 85.8898L1067.24 89.0085L1064.45 92.1757L1062.57 94.3151M879.852 94.3151L874.109 98.6598L868.246 103.097M879.852 94.3151H971.21M879.852 94.3151H788.493M971.21 94.3151L961.538 103.097M971.21 94.3151H1062.57M1062.57 94.3151L1054.83 103.097M868.246 103.097H961.538M868.246 103.097H774.954M951.449 112.26L961.538 103.097M951.449 112.26L940.913 121.826M951.449 112.26H1046.76M961.538 103.097H1054.83M774.954 103.097H681.661M774.954 103.097L788.493 94.3151M1054.83 103.097L1046.76 112.26M788.493 94.3151H697.136M940.913 121.826L938.205 124.285L929.901 131.826M940.913 121.826H1038.33M1046.76 112.26L1038.33 121.826M1038.33 121.826L1037.25 123.052L1033.97 126.771L1029.52 131.826M830.281 131.826L816.454 142.289M830.281 131.826H929.901M830.281 131.826H730.661M929.901 131.826L918.378 142.289M929.901 131.826H1029.52M1029.52 131.826L1020.3 142.289M816.454 142.289H918.378M816.454 142.289H714.53M906.311 153.247L913.92 146.339L918.378 142.289M906.311 153.247L893.657 164.736M906.311 153.247H1010.65M918.378 142.289H1020.3M714.53 142.289H612.605M714.53 142.289L730.661 131.826M1020.3 142.289L1010.65 153.247M730.661 131.826H631.04M893.657 164.736L880.376 176.797M893.657 164.736H1000.53M1010.65 153.247L1000.53 164.736M1000.53 164.736L989.901 176.797M770.85 176.797L754.099 189.472M770.85 176.797H880.376M770.85 176.797H661.327M880.376 176.797L866.417 189.472M880.376 176.797H989.901M989.901 176.797L978.733 189.472M754.099 189.472H866.417M754.099 189.472H641.783M851.728 202.811L866.417 189.472M851.728 202.811L836.25 216.866M851.728 202.811H966.983M866.417 189.472H978.733M641.783 189.472H529.468M641.783 189.472L661.327 176.797M978.733 189.472L966.983 202.811M661.327 176.797H551.801M836.25 216.866L819.917 231.698M836.25 216.866H954.599M966.983 202.811L954.599 216.866M954.599 216.866L941.533 231.698M698.299 231.698L677.588 247.37M698.299 231.698H819.917M698.299 231.698H576.682M819.917 231.698L802.657 247.37M819.917 231.698H941.533M941.533 231.698L927.725 247.37M677.588 247.37H802.657M677.588 247.37H552.519M784.387 263.959L802.657 247.37M784.387 263.959L765.02 281.546M784.387 263.959H913.111M802.657 247.37H927.725M552.519 247.37H427.45M552.519 247.37L576.682 231.698M927.725 247.37L913.111 263.959M576.682 231.698H455.066M765.02 281.546L744.45 300.225M765.02 281.546H897.616M913.111 263.959L897.616 281.546M897.616 281.546L881.16 300.225M607.74 300.225L581.476 320.1M607.74 300.225H744.45M607.74 300.225H471.03M744.45 300.225L722.563 320.1M744.45 300.225H881.16M881.16 300.225L863.651 320.1M581.476 320.1H722.563M581.476 320.1H440.389M699.229 341.289L722.563 320.1M699.229 341.289L674.296 363.928M699.229 341.289H844.983M722.563 320.1H863.651M440.389 320.1H299.301M440.389 320.1L471.03 300.225M863.651 320.1L844.983 341.289M471.03 300.225H334.32M674.296 363.928L647.599 388.171M674.296 363.928H825.038M844.983 341.289L825.038 363.928M825.038 363.928L803.679 388.171M491.518 388.171L457.128 414.195M491.518 388.171H647.599M491.518 388.171H335.438M647.599 388.171L618.94 414.195M647.599 388.171H803.679M803.679 388.171L780.752 414.195M457.128 414.195H618.94M457.128 414.195H295.316M588.096 442.202L618.94 414.195M588.096 442.202L554.807 472.431M588.096 442.202H756.077M618.94 414.195H780.752M295.316 414.195H133.504M295.316 414.195L335.438 388.171M780.752 414.195L756.077 442.202M335.438 388.171H179.357M554.807 472.431L518.77 505.154M554.807 472.431H729.445M756.077 442.202L729.445 472.431M729.445 472.431L700.617 505.154M336.925 505.154L289.958 540.694M336.925 505.154H518.77M336.925 505.154H155.078M518.77 505.154L479.631 540.694M518.77 505.154H700.617M700.617 505.154L669.305 540.694M289.958 540.694H479.631M289.958 540.694H100.284M436.971 579.431L479.631 540.694M436.971 579.431L390.292 621.818M436.971 579.431H635.177M479.631 540.694H669.305M100.284 540.694H-89.3898M100.284 540.694L155.078 505.154M669.305 540.694L635.177 579.431M155.078 505.154H-26.7668M390.292 621.818L339 668.396M390.292 621.818H597.835M635.177 579.431L597.835 621.818M597.835 621.818L556.799 668.396M121.199 668.396L53.245 719.817M121.199 668.396H339M121.199 668.396H-96.6018M339 668.396L282.371 719.817M339 668.396H556.799M556.799 668.396L511.496 719.817M282.371 719.817H53.245M282.371 719.817H511.496M53.245 719.817L-134.159 719.816M-96.6018 668.396L-134.159 692.756M-96.6018 668.396H-134.159M644.395 35.3029L630.207 41.7446M644.395 35.3029H722.755M644.395 35.3029H566.035M735.079 29.0861L746.979 23.0829M735.079 29.0861L722.755 35.3029M735.079 29.0861H812.07M746.979 23.0829H822.647M746.979 23.0829L758.477 17.283M684.084 17.283H758.477M684.084 17.283L688.765 15.1581L696.436 11.6751M684.084 17.283H609.693M722.755 35.3029L709.986 41.7446M722.755 35.3029H801.116M812.07 29.0861L822.647 23.0829M812.07 29.0861L801.116 35.3029M822.647 23.0829L830.346 18.7144L832.868 17.283M758.477 17.283L759.886 16.5709L769.592 11.6751M758.477 17.283H832.868M801.116 35.3029L789.766 41.7446M907.259 17.283L915.905 11.6751M907.259 17.283H832.868M832.868 17.283L836.612 15.1581L842.749 11.6751M630.207 41.7446H709.986M630.207 41.7446H550.428M696.747 48.4238L709.986 41.7446M696.747 48.4238L683.01 55.3537M696.747 48.4238H777.997M709.986 41.7446H789.766M550.428 41.7446H470.649M550.428 41.7446L566.035 35.3029M789.766 41.7446L777.997 48.4238M566.035 35.3029H487.675M683.01 55.3537L679.493 57.1267L668.745 62.5489M683.01 55.3537H765.786M777.997 48.4238L765.786 55.3537M765.786 55.3537L753.107 62.5489M584.384 62.5489L582.361 63.4684L567.918 70.0257M584.384 62.5489H668.745M584.384 62.5489H500.022M668.745 62.5489L653.926 70.0257M668.745 62.5489H753.107M753.107 62.5489L751.489 63.4684L739.934 70.0257M567.918 70.0257H653.926M567.918 70.0257H481.91M638.516 77.7999L653.926 70.0257M638.516 77.7999L622.479 85.8898M638.516 77.7999H726.236M653.926 70.0257H739.934M481.91 70.0257H395.901M481.91 70.0257L500.022 62.5489M739.934 70.0257L726.236 77.7999M500.022 62.5489H415.661M622.479 85.8898L605.777 94.3151M622.479 85.8898H711.981M726.236 77.7999L711.981 85.8898M711.981 85.8898L697.136 94.3151M514.42 94.3151L495.077 103.097M514.42 94.3151H605.777M514.42 94.3151H423.062M605.777 94.3151L588.369 103.097M605.777 94.3151H697.136M697.136 94.3151L681.661 103.097M495.077 103.097H588.369M495.077 103.097H401.784M570.207 112.26L588.369 103.097M570.207 112.26L551.242 121.826M570.207 112.26H665.517M588.369 103.097H681.661M401.784 103.097H308.492M401.784 103.097L423.062 94.3151M681.661 103.097L665.517 112.26M423.062 94.3151H331.703M551.242 121.826L531.42 131.826M551.242 121.826H648.66M665.517 112.26L648.66 121.826M648.66 121.826L631.04 131.826M431.8 131.826L408.757 142.289M431.8 131.826H531.42M431.8 131.826H332.18M531.42 131.826L510.681 142.289M531.42 131.826H631.04M631.04 131.826L612.605 142.289M408.757 142.289H510.681M408.757 142.289H306.832M488.959 153.247L510.681 142.289M488.959 153.247L466.184 164.736M488.959 153.247H593.296M510.681 142.289H612.605M306.832 142.289H204.908M306.832 142.289L332.18 131.826M612.605 142.289L593.296 153.247M332.18 131.826H232.56M466.184 164.736L442.276 176.797M466.184 164.736H573.052M593.296 153.247L573.052 164.736M573.052 164.736L551.801 176.797M332.751 176.797L304.834 189.472M332.751 176.797H442.276M332.751 176.797H223.227M442.276 176.797L417.15 189.472M442.276 176.797H551.801M551.801 176.797L529.468 189.472M304.834 189.472H417.15M304.834 189.472H192.516M390.709 202.811L417.15 189.472M390.709 202.811L362.849 216.866M390.709 202.811H505.964M417.15 189.472H529.468M192.516 189.472H80.2004M192.516 189.472L223.227 176.797M529.468 189.472L505.964 202.811M223.227 176.797H113.702M362.849 216.866L333.449 231.698M362.849 216.866H481.198M505.964 202.811L481.198 216.866M481.198 216.866L455.066 231.698M211.832 231.698L177.313 247.37M211.832 231.698H333.449M211.832 231.698H90.2161M333.449 231.698L302.382 247.37M333.449 231.698H455.066M455.066 231.698L427.45 247.37M177.313 247.37H302.382M177.313 247.37H52.2443M269.498 263.959L302.382 247.37M269.498 263.959L234.636 281.546M269.498 263.959H398.22M302.382 247.37H427.45M52.2443 247.37H-72.8245M52.2443 247.37L90.2161 231.698M427.45 247.37L398.22 263.959M90.2161 231.698H-31.4012M234.636 281.546L197.61 300.225M234.636 281.546H367.232M398.22 263.959L367.232 281.546M367.232 281.546L334.32 300.225M60.8996 300.225L17.1266 320.1M60.8996 300.225H197.61M60.8996 300.225H-75.8105M197.61 300.225L158.214 320.1M197.61 300.225H334.32M334.32 300.225L299.301 320.1M17.1266 320.1H158.214M17.1266 320.1H-123.961M116.21 341.289L158.214 320.1M116.21 341.289L71.3335 363.928M116.21 341.289H261.964M158.214 320.1H299.301M-123.961 320.1L-75.8105 300.225M-123.961 320.1H-134.159M-123.961 320.1L-134.159 324.308M299.301 320.1L261.964 341.289M-75.8105 300.225H-134.159M71.3335 363.928L23.2776 388.171M71.3335 363.928H222.074M261.964 341.289L222.074 363.928M222.074 363.928L179.357 388.171M-132.803 388.171H23.2776M-132.803 388.171H-134.159M-132.803 388.171L-134.159 388.786M23.2776 388.171L-28.3094 414.195M23.2776 388.171H179.357M179.357 388.171L133.504 414.195M-83.8279 442.202L-28.3094 414.195M-83.8279 442.202H84.153M-83.8279 442.202H-134.159M-83.8279 442.202L-134.159 467.593M-28.3094 414.195H133.504M-28.3094 414.195H-134.159M133.504 414.195L84.153 442.202M84.153 442.202L30.8915 472.431M30.8915 472.431L-26.7668 505.154M30.8915 472.431H-134.159M-26.7668 505.154L-89.3898 540.694M-26.7668 505.154H-134.159M-89.3898 540.694H-134.159M-89.3898 540.694L-134.159 566.102M330.953 35.3029L311.091 41.7446M330.953 35.3029H409.315M330.953 35.3029H252.593M427.114 29.0861L444.302 23.0829M427.114 29.0861L409.315 35.3029M427.114 29.0861H504.105M444.302 23.0829H519.971M444.302 23.0829L460.91 17.283M386.519 17.283H460.91M386.519 17.283L403.81 11.6751M386.519 17.283H312.127M409.315 35.3029L390.87 41.7446M409.315 35.3029H487.675M504.105 29.0861L519.971 23.0829M504.105 29.0861L487.675 35.3029M519.971 23.0829L535.301 17.283M460.91 17.283L462.946 16.5709L476.966 11.6751M460.91 17.283H535.301M487.675 35.3029L470.649 41.7446M609.693 17.283L623.278 11.6751M609.693 17.283H535.301M535.301 17.283L537.181 16.5709L550.122 11.6751M311.091 41.7446H390.87M311.091 41.7446H231.312M371.745 48.4238L390.87 41.7446M371.745 48.4238L351.902 55.3537M371.745 48.4238H452.997M390.87 41.7446H470.649M231.312 41.7446H151.532M231.312 41.7446L252.593 35.3029M470.649 41.7446L452.997 48.4238M252.593 35.3029H174.233M351.902 55.3537L331.3 62.5489M351.902 55.3537H434.679M452.997 48.4238L450.743 49.2752L434.679 55.3537M434.679 55.3537L415.661 62.5489M246.938 62.5489L223.885 70.0257M246.938 62.5489H331.3M246.938 62.5489H162.577M331.3 62.5489L309.893 70.0257M331.3 62.5489H415.661M415.661 62.5489L395.901 70.0257M223.885 70.0257H309.893M223.885 70.0257H137.877M287.634 77.7999L309.893 70.0257M287.634 77.7999L264.47 85.8898M287.634 77.7999H375.354M309.893 70.0257H395.901M137.877 70.0257H51.8684M137.877 70.0257L162.577 62.5489M395.901 70.0257L375.354 77.7999M162.577 62.5489H78.2152M264.47 85.8898L240.346 94.3151M264.47 85.8898H353.972M375.354 77.7999L353.972 85.8898M353.972 85.8898L331.703 94.3151M148.987 94.3151L121.907 103.097M148.987 94.3151H240.346M148.987 94.3151H57.6288M240.346 94.3151L215.2 103.097M240.346 94.3151H331.703M331.703 94.3151L308.492 103.097M121.907 103.097H215.2M121.907 103.097H28.615M188.966 112.26L215.2 103.097M188.966 112.26L161.573 121.826M188.966 112.26H284.277M215.2 103.097H308.492M28.615 103.097H-64.6768M28.615 103.097L57.6288 94.3151M308.492 103.097L284.277 112.26M57.6288 94.3151H-33.7282M161.573 121.826L132.94 131.826M161.573 121.826H258.989M284.277 112.26L258.989 121.826M258.989 121.826L232.56 131.826M33.3194 131.826L1.05916 142.289M33.3194 131.826H132.94M33.3194 131.826H-66.2992M132.94 131.826L102.984 142.289M132.94 131.826H232.56M232.56 131.826L204.908 142.289M1.05916 142.289H102.984M71.6069 153.247L102.984 142.289M71.6069 153.247L38.7104 164.736M71.6069 153.247H175.946M102.984 142.289H204.908M204.908 142.289L175.946 153.247M-66.2992 131.826H-134.159M38.7104 164.736L4.17697 176.797M38.7104 164.736H145.578M175.946 153.247L145.578 164.736M145.578 164.736L113.702 176.797M-105.348 176.797H4.17697M-105.348 176.797H-134.159M-105.348 176.797L-134.159 186.14M4.17697 176.797L-32.1172 189.472M4.17697 176.797H113.702M113.702 176.797L80.2004 189.472M-70.3087 202.811L-32.1172 189.472M-70.3087 202.811L-110.552 216.866M-70.3087 202.811H44.9461M-70.3087 202.811H-134.159M-32.1172 189.472H80.2004M-32.1172 189.472H-134.159M80.2004 189.472L44.9461 202.811M-134.476 186.243L-134.159 186.14M-110.552 216.866H7.79758M-110.552 216.866H-134.159M-110.552 216.866L-134.159 225.111M44.9461 202.811L7.79758 216.866M7.79758 216.866L-31.4012 231.698M-31.4012 231.698L-72.8245 247.37M-31.4012 231.698H-134.159M-116.669 263.959L-72.8245 247.37M-116.669 263.959H-134.159M-116.669 263.959L-134.159 270.576M-72.8245 247.37H-134.159M17.5123 35.3029L-8.02576 41.7446M17.5123 35.3029H95.8725M17.5123 35.3029H-60.8495M119.149 29.0861L141.626 23.0829M119.149 29.0861L95.8725 35.3029M119.149 29.0861H196.14M141.626 23.0829H217.294M141.626 23.0829L163.343 17.283M88.9517 17.283H163.343M88.9517 17.283L111.183 11.6751M88.9517 17.283H14.5604M95.8725 35.3029L71.7534 41.7446M95.8725 35.3029H174.233M196.14 29.0861L217.294 23.0829M196.14 29.0861L174.233 35.3029M217.294 23.0829L237.734 17.283M163.343 17.283H237.734M163.343 17.283L184.341 11.6751M174.233 35.3029L151.532 41.7446M312.127 17.283L330.654 11.6751M312.127 17.283H237.734M237.734 17.283L257.497 11.6751M-8.02576 41.7446H71.7534M-8.02576 41.7446H-87.8049M46.7442 48.4238L71.7534 41.7446M46.7442 48.4238L20.7961 55.3537M46.7442 48.4238H127.994M71.7534 41.7446H151.532M-87.8049 41.7446L-60.8495 35.3029M-87.8049 41.7446H-134.159M151.532 41.7446L127.994 48.4238M-60.8495 35.3029H-134.159M20.7961 55.3537L-6.14631 62.5489M20.7961 55.3537H103.573M127.994 48.4238L103.573 55.3537M103.573 55.3537L78.2152 62.5489M-90.5078 62.5489L-120.148 70.0257M-90.5078 62.5489H-6.14631M-90.5078 62.5489H-134.159M-6.14631 62.5489L-34.1399 70.0257M-6.14631 62.5489H78.2152M78.2152 62.5489L51.8684 70.0257M-63.2481 77.7999L-34.1399 70.0257M-63.2481 77.7999L-93.5393 85.8898M-63.2481 77.7999H24.472M-63.2481 77.7999H-134.159M-34.1399 70.0257H-120.148M-34.1399 70.0257H51.8684M-120.148 70.0257L-134.159 73.5593M-120.148 70.0257H-134.159M51.8684 70.0257L24.472 77.7999M-93.5393 85.8898L-125.087 94.3151M-93.5393 85.8898H-4.03739M-93.5393 85.8898H-134.159M24.472 77.7999L-4.03739 85.8898M-4.03739 85.8898L-33.7282 94.3151M-125.087 94.3151H-33.7282M-125.087 94.3151L-134.159 96.7375M-125.087 94.3151H-134.159M-33.7282 94.3151L-64.6768 103.097M-96.9647 112.26L-64.6768 103.097M-96.9647 112.26L-130.68 121.826M-96.9647 112.26H-134.159M-64.6768 103.097H-134.159M-134.647 103.097H-134.159M-130.68 121.826H-134.159M-130.68 121.826L-134.159 122.814M-135 123.052L-134.159 122.814M-111.825 29.0861L-85.3819 23.0829M-111.825 29.0861H-134.159M-111.825 29.0861L-134.159 34.1558M-85.3819 23.0829L-59.8309 17.283M-85.3819 23.0829H-134.159M14.5604 17.283L38.027 11.6751M14.5604 17.283H-59.8309M-59.8309 17.283L-35.1292 11.6751M-59.8309 17.283H-134.159M2452.19 11.6751H2525.35M2452.19 11.6751H2379.03M2507.43 6.25083L2511.85 7.59038L2525.35 11.6751M2507.43 6.25083H2579.39M2525.35 11.6751H2598.5M2579.39 6.25083L2584.11 7.59038L2586.48 8.26326L2598.5 11.6751M2598.5 11.6751H2671.66M2671.66 11.6751H2744.82M2379.03 11.6751H2305.88M2744.82 11.6751H2817.97M2817.97 11.6751L2795.27 6.25083M2817.97 11.6751H2891.13M2795.27 6.25083H2867.23M2159.56 11.6751H2232.72M2159.56 11.6751H2086.41M2219.58 6.25083L2222.82 7.59038L2224.46 8.26326L2232.72 11.6751M2219.58 6.25083H2291.54M2232.72 11.6751H2305.88M2291.54 6.25083L2305.88 11.6751M2086.41 11.6751H2013.25M1866.94 11.6751H1940.1M1866.94 11.6751H1793.78M1931.73 6.25083L1932.76 6.91854L1933.8 7.59038L1934.84 8.26326L1940.1 11.6751M1931.73 6.25083H2003.69M1940.1 11.6751H2013.25M2003.69 6.25083L2013.25 11.6751M1793.78 11.6751H1720.62M1574.31 11.6751H1647.47M1574.31 11.6751H1501.16M1643.89 6.25083L1647.47 11.6751M1643.89 6.25083H1715.85M1647.47 11.6751H1720.62M1715.85 6.25083L1716.44 6.91854L1717.03 7.59038L1717.62 8.26326L1720.62 11.6751M1501.16 11.6751H1428M1281.69 11.6751H1354.84M1281.69 11.6751H1208.53M1356.04 6.25083L1354.84 11.6751M1356.04 6.25083H1428M1354.84 11.6751H1428M1428 6.25083V11.6751M1208.53 11.6751H1135.37M989.061 11.6751H1062.22M989.061 11.6751H915.905M1068.19 6.25083L1066.72 7.59038L1063.73 10.3015L1062.22 11.6751M1068.19 6.25083H1140.15M1062.22 11.6751H1135.37M1140.15 6.25083L1139.56 6.91854L1138.97 7.59038L1138.38 8.26326L1135.37 11.6751M915.905 11.6751H842.749M696.436 11.6751H769.592M696.436 11.6751H623.278M780.345 6.25083L777.69 7.59038L776.354 8.26326L769.592 11.6751M780.345 6.25083H852.307M769.592 11.6751H842.749M852.307 6.25083L851.129 6.91854L842.749 11.6751M623.278 11.6751H550.122M403.81 11.6751H476.966M403.81 11.6751H330.654M492.498 6.25083L488.663 7.59038L486.733 8.26326L476.966 11.6751M492.498 6.25083H564.46M476.966 11.6751H550.122M564.46 6.25083L562.693 6.91854L550.122 11.6751M330.654 11.6751H257.497M111.183 11.6751H184.341M111.183 11.6751H38.027M204.651 6.25083L184.341 11.6751M204.651 6.25083H276.613M184.341 11.6751H257.497M276.613 6.25083L271.894 7.59038L269.518 8.26326L257.497 11.6751M38.027 11.6751H-35.1292M-83.1949 6.25083L-108.285 11.6751M-83.1949 6.25083H-11.2331M-83.1949 6.25083H-134.159M-108.285 11.6751H-35.1292M-108.285 11.6751L-134.159 17.2693M-108.285 11.6751H-134.159M-11.2331 6.25083L-17.1335 7.59038L-35.1292 11.6751M2867.23 6.25083L2873.13 7.59038L2891.13 11.6751M2891.13 11.6751H2964.29M2964.29 11.6751L2990.16 17.2693M2964.29 11.6751H2990.16M2990.16 270.576V263.959M2990.16 270.576V281.546M2990.16 263.959V247.37M2990.16 281.546V284.824V300.225M2990.16 300.225V320.1M2990.16 142.289V131.826M2990.16 142.289V152.366M2990.16 6.25083V11.6751M2990.16 11.6751V17.2693M2990.16 17.2693L2990.22 17.283H2990.16M2990.16 17.2693V17.283M2990.16 17.283V23.0829M2990.16 23.0829V29.0861M2990.16 29.0861V34.1558M2990.16 34.1558V35.3029M2990.16 35.3029V41.7446M2990.16 41.7446V48.4238M2990.16 48.4238V52.8203M2990.16 52.8203V55.3537M2990.16 55.3537V62.5489M2990.16 62.5489V70.0257M2990.16 70.0257V73.5593M2990.16 73.5593V77.7999M2990.16 77.7999V85.8898M2990.16 85.8898V94.3151M2990.16 94.3151V96.7375M2990.16 96.7375V103.097M2990.16 103.097V112.26M2990.16 112.26V121.826M2990.16 121.826V122.814M2990.16 122.814V131.826M2990.16 153.247V164.736M2990.16 153.247V152.366M2990.16 164.736V176.797M2990.16 176.797V186.14M2990.16 186.14V189.472M2990.16 189.472V202.811M2990.16 202.811V216.866M2990.16 216.866V225.111M2990.16 225.111V231.698M2990.16 231.698V247.37M2990.16 320.1V324.308M2990.16 324.308V341.289M2990.16 341.289V363.928M2990.16 363.928V388.171M2990.16 388.171V388.786M2990.16 388.786V414.195M2990.16 414.195V442.202M2990.16 442.202V467.593M2990.16 467.593V472.431M2990.16 472.431V505.154M2990.16 505.154V540.694M2990.16 540.694V566.102M2990.16 566.102V579.431M2990.16 579.431V621.818M2990.16 621.818V668.396M2990.16 668.396V692.756M2990.16 692.756V719.816M2990.16 719.816V720H-134.159V719.816M-134.159 153.247V164.736M-134.159 153.247V152.366M-134.159 152.366V142.289M-134.159 142.289V131.826M-134.159 131.826V122.814M-134.159 122.814V121.826M-134.159 121.826V112.26M-134.159 112.26V103.097M-134.159 103.097V96.7375M-134.159 96.7375V94.3151M-134.159 94.3151V85.8898M-134.159 85.8898V77.7999M-134.159 77.7999V73.5593M-134.159 73.5593V70.0257M-134.159 70.0257V62.5489M-134.159 62.5489V55.3537M-134.159 55.3537V52.8203M-134.159 52.8203V48.4238M-134.159 48.4238V41.7446M-134.159 41.7446V35.3029M-134.159 35.3029V34.1558M-134.159 34.1558V29.0861M-134.159 29.0861V23.0829M-134.159 23.0829V17.283M-134.159 17.283H-134.222L-134.159 17.2693M-134.159 17.283V17.2693M-134.159 17.2693V11.6751M-134.159 11.6751V6.25083M-134.159 719.816V692.756M-134.159 692.756V668.396M-134.159 668.396V621.819M-134.159 621.819V579.431M-134.159 579.431V566.102M-134.159 566.102V540.694M-134.159 540.694V505.154M-134.159 505.154V472.431M-134.159 472.431V467.593M-134.159 467.593V442.202M-134.159 442.202V414.195M-134.159 414.195V388.786M-134.159 388.786V388.171M-134.159 388.171V363.928M-134.159 363.928V341.289M-134.159 341.289V324.308M-134.159 324.308V320.1M-134.159 320.1V300.225M-134.159 300.225V281.546M-134.159 281.546V270.576M-134.159 270.576V263.959M-134.159 263.959V247.37M-134.159 247.37V231.698M-134.159 231.698V225.111M-134.159 225.111V216.866M-134.159 216.866V202.811M-134.159 202.811V189.472M-134.159 189.472V186.14M-134.159 186.14V176.797M-134.159 176.797V164.736" stroke="url(#paint0_linear_6445_4734)" stroke-opacity="0.1" stroke-width="1.8895" stroke-miterlimit="10" stroke-linecap="round" stroke-linejoin="round"/>
<defs>
<linearGradient id="paint0_linear_6445_4734" x1="1428" y1="1" x2="1428" y2="505.107" gradientUnits="userSpaceOnUse">
<stop stop-color="#CED2DF" stop-opacity="0"/>
<stop offset="1" stop-color="#5D606A"/>
</linearGradient>
</defs>
</svg>
