<svg width="16" height="16" viewBox="0 0 16 16" fill="none" xmlns="http://www.w3.org/2000/svg">
<path d="M11.3335 1.3335H4.66683C2.82683 1.3335 1.3335 2.82016 1.3335 4.6535V8.64016V9.30683C1.3335 11.1402 2.82683 12.6268 4.66683 12.6268H5.66683C5.84683 12.6268 6.08683 12.7468 6.20016 12.8935L7.20016 14.2202C7.64016 14.8068 8.36016 14.8068 8.80016 14.2202L9.80016 12.8935C9.92683 12.7268 10.1268 12.6268 10.3335 12.6268H11.3335C13.1735 12.6268 14.6668 11.1402 14.6668 9.30683V4.6535C14.6668 2.82016 13.1735 1.3335 11.3335 1.3335ZM5.3335 8.00016C4.96016 8.00016 4.66683 7.70016 4.66683 7.3335C4.66683 6.96683 4.96683 6.66683 5.3335 6.66683C5.70016 6.66683 6.00016 6.96683 6.00016 7.3335C6.00016 7.70016 5.70683 8.00016 5.3335 8.00016ZM8.00016 8.00016C7.62683 8.00016 7.3335 7.70016 7.3335 7.3335C7.3335 6.96683 7.6335 6.66683 8.00016 6.66683C8.36683 6.66683 8.66683 6.96683 8.66683 7.3335C8.66683 7.70016 8.3735 8.00016 8.00016 8.00016ZM10.6668 8.00016C10.2935 8.00016 10.0002 7.70016 10.0002 7.3335C10.0002 6.96683 10.3002 6.66683 10.6668 6.66683C11.0335 6.66683 11.3335 6.96683 11.3335 7.3335C11.3335 7.70016 11.0402 8.00016 10.6668 8.00016Z" fill="#B5B6BA"/>
</svg>
