<svg width="16" height="16" viewBox="0 0 16 16" fill="none" xmlns="http://www.w3.org/2000/svg">
<path d="M12.4466 1.3335H11.18C9.72663 1.3335 8.95996 2.10016 8.95996 3.5535V4.82016C8.95996 6.2735 9.72663 7.04016 11.18 7.04016H12.4466C13.9 7.04016 14.6666 6.2735 14.6666 4.82016V3.5535C14.6666 2.10016 13.9 1.3335 12.4466 1.3335Z" fill="#244CC6"/>
<path d="M4.82683 8.95312H3.56016C2.10016 8.95312 1.3335 9.71979 1.3335 11.1731V12.4398C1.3335 13.8998 2.10016 14.6665 3.5535 14.6665H4.82016C6.2735 14.6665 7.04016 13.8998 7.04016 12.4465V11.1798C7.04683 9.71979 6.28016 8.95312 4.82683 8.95312Z" fill="#244CC6"/>
<path d="M4.1935 7.0535C5.77303 7.0535 7.0535 5.77303 7.0535 4.1935C7.0535 2.61396 5.77303 1.3335 4.1935 1.3335C2.61396 1.3335 1.3335 2.61396 1.3335 4.1935C1.3335 5.77303 2.61396 7.0535 4.1935 7.0535Z" fill="#244CC6"/>
<path d="M11.8068 14.6668C13.3863 14.6668 14.6668 13.3863 14.6668 11.8068C14.6668 10.2272 13.3863 8.94678 11.8068 8.94678C10.2272 8.94678 8.94678 10.2272 8.94678 11.8068C8.94678 13.3863 10.2272 14.6668 11.8068 14.6668Z" fill="#244CC6"/>
</svg>
