<svg width="16" height="16" viewBox="0 0 16 16" fill="none" xmlns="http://www.w3.org/2000/svg">
<path d="M11.1002 3.81348H4.90016C2.9335 3.81348 1.3335 5.41348 1.3335 7.38014V11.1001C1.3335 13.0668 2.9335 14.6668 4.90016 14.6668H11.1002C13.0668 14.6668 14.6668 13.0668 14.6668 11.1001V7.38014C14.6668 5.41348 13.0668 3.81348 11.1002 3.81348ZM9.66683 8.01348C9.66683 7.64681 9.96683 7.34681 10.3335 7.34681C10.7002 7.34681 11.0002 7.64681 11.0002 8.01348C11.0002 8.38014 10.7002 8.68681 10.3335 8.68681C9.96683 8.68681 9.66683 8.39348 9.66683 8.02681V8.01348ZM6.7535 10.7135C6.6535 10.8135 6.52683 10.8601 6.40016 10.8601C6.2735 10.8601 6.14683 10.8135 6.04683 10.7135L5.36016 10.0268L4.70016 10.6868C4.60016 10.7868 4.4735 10.8335 4.34683 10.8335C4.22016 10.8335 4.0935 10.7868 3.9935 10.6868C3.80016 10.4935 3.80016 10.1735 3.9935 9.98014L4.6535 9.32014L4.0135 8.68014C3.82016 8.48681 3.82016 8.16681 4.0135 7.97348C4.20683 7.78014 4.52683 7.78014 4.72016 7.97348L5.36016 8.61348L6.02016 7.95348C6.2135 7.76014 6.5335 7.76014 6.72683 7.95348C6.92016 8.14681 6.92016 8.46681 6.72683 8.66014L6.06683 9.32014L6.7535 10.0068C6.94683 10.2001 6.94683 10.5201 6.7535 10.7135ZM9.02683 10.0001C8.66016 10.0001 8.3535 9.70014 8.3535 9.33348C8.3535 8.96681 8.64683 8.66681 9.0135 8.66681H9.02683C9.3935 8.66681 9.6935 8.96681 9.6935 9.33348C9.6935 9.70014 9.40016 10.0001 9.02683 10.0001ZM10.3335 11.3135C9.96683 11.3135 9.66683 11.0201 9.66683 10.6535V10.6401C9.66683 10.2735 9.96683 9.97348 10.3335 9.97348C10.7002 9.97348 11.0002 10.2735 11.0002 10.6401C11.0002 11.0068 10.7068 11.3135 10.3335 11.3135ZM11.6535 10.0001C11.2868 10.0001 10.9802 9.70014 10.9802 9.33348C10.9802 8.96681 11.2735 8.66681 11.6402 8.66681H11.6535C12.0202 8.66681 12.3202 8.96681 12.3202 9.33348C12.3202 9.70014 12.0268 10.0001 11.6535 10.0001Z" fill="#B5B6BA"/>
<path d="M9.09341 1.80683L9.08674 2.4335C9.08007 3.02016 8.59341 3.50683 8.00007 3.50683C7.90007 3.50683 7.84007 3.5735 7.84007 3.66016C7.84007 3.74683 7.90674 3.8135 7.9934 3.8135H6.92007C6.91341 3.76683 6.90674 3.7135 6.90674 3.66016C6.90674 3.06016 7.3934 2.5735 7.98674 2.5735C8.08674 2.5735 8.1534 2.50683 8.1534 2.42016L8.16007 1.7935C8.16674 1.54016 8.3734 1.3335 8.62674 1.3335H8.6334C8.8934 1.3335 9.09341 1.54683 9.09341 1.80683Z" fill="#B5B6BA"/>
</svg>
