<svg width="16" height="16" viewBox="0 0 16 16" fill="none" xmlns="http://www.w3.org/2000/svg">
<path d="M10.1602 14.8467H10.0735C7.11351 14.8467 5.68684 13.68 5.44017 11.0667C5.41351 10.7933 5.61351 10.5467 5.89351 10.52C6.16017 10.4933 6.41351 10.7 6.44017 10.9733C6.63351 13.0667 7.62017 13.8467 10.0802 13.8467H10.1668C12.8802 13.8467 13.8402 12.8867 13.8402 10.1733V5.82665C13.8402 3.11332 12.8802 2.15332 10.1668 2.15332H10.0802C7.60684 2.15332 6.62017 2.94665 6.44017 5.07999C6.40684 5.35332 6.17351 5.55999 5.89351 5.53332C5.61351 5.51332 5.41351 5.26665 5.43351 4.99332C5.66017 2.33999 7.09351 1.15332 10.0735 1.15332H10.1602C13.4335 1.15332 14.8335 2.55332 14.8335 5.82665V10.1733C14.8335 13.4467 13.4335 14.8467 10.1602 14.8467Z" fill="#B5B6BA"/>
<path d="M10.0002 8.5H2.41357C2.14024 8.5 1.91357 8.27333 1.91357 8C1.91357 7.72667 2.14024 7.5 2.41357 7.5H10.0002C10.2736 7.5 10.5002 7.72667 10.5002 8C10.5002 8.27333 10.2736 8.5 10.0002 8.5Z" fill="#B5B6BA"/>
<path d="M3.90012 10.7336C3.77346 10.7336 3.64679 10.6869 3.54679 10.5869L1.31346 8.35356C1.12012 8.16022 1.12012 7.84022 1.31346 7.64689L3.54679 5.41355C3.74012 5.22022 4.06012 5.22022 4.25346 5.41355C4.44679 5.60689 4.44679 5.92689 4.25346 6.12022L2.37346 8.00022L4.25346 9.88022C4.44679 10.0736 4.44679 10.3936 4.25346 10.5869C4.16012 10.6869 4.02679 10.7336 3.90012 10.7336Z" fill="#B5B6BA"/>
</svg>
