<svg width="113" height="36" viewBox="0 0 113 36" fill="none" xmlns="http://www.w3.org/2000/svg">
<g clip-path="url(#clip0_859_26546)">
<path d="M97.0166 11.9644V23.7078H84.7676V11.972C84.7695 11.8697 84.7981 11.7698 84.8507 11.6824L84.9869 11.4385C85.0241 11.3742 85.0728 11.3173 85.1305 11.2709L90.4233 6.98806C90.5675 6.87309 90.746 6.81055 90.9299 6.81055C91.1138 6.81055 91.2923 6.87309 91.4365 6.98806L96.7293 11.2709C96.7847 11.3176 96.8309 11.3745 96.8654 11.4385L97.0015 11.6671C97.0288 11.7638 97.034 11.8654 97.0166 11.9644Z" fill="#FFD548"/>
<path d="M90.9074 0C87.9165 0 84.9928 0.893886 82.5059 2.56862C80.0191 4.24336 78.0808 6.62373 76.9362 9.40872C75.7917 12.1937 75.4922 15.2582 76.0757 18.2148C76.6592 21.1713 78.0995 23.887 80.2144 26.0186C82.3293 28.1501 85.0238 29.6017 87.9572 30.1898C90.8906 30.7779 93.9312 30.476 96.6944 29.3225C99.4577 28.1689 101.819 26.2154 103.481 23.7089C105.143 21.2025 106.03 18.2558 106.03 15.2413C106.03 11.1991 104.436 7.32238 101.6 4.46408C98.7645 1.60578 94.9181 0 90.9074 0ZM90.9074 27.7316C88.4593 27.7316 86.0663 26.9999 84.0308 25.6292C81.9953 24.2584 80.4088 22.3101 79.472 20.0305C78.5352 17.751 78.2901 15.2427 78.7677 12.8228C79.2453 10.4029 80.4241 8.18005 82.1551 6.43539C83.8862 4.69073 86.0917 3.5026 88.4927 3.02125C90.8937 2.53989 93.3824 2.78694 95.6441 3.73115C97.9058 4.67535 99.8389 6.27431 101.199 8.32581C102.559 10.3773 103.285 12.7892 103.285 15.2566C103.285 18.5651 101.981 21.7382 99.6597 24.0777C97.3384 26.4173 94.1901 27.7316 90.9074 27.7316Z" fill="#521292"/>
<path d="M112.611 26.7137L106.596 22.2109L102.128 28.2739L108.144 32.7766L112.611 26.7137Z" fill="#521292"/>
<path d="M0 0.496094H4.77107L8.66506 13.817L12.5817 1.73064H16.4454L20.4226 13.817L24.2863 0.496094H29.0801L22.8648 20.8966H18.4492L14.5249 9.03885L10.5704 20.9195H6.18499L0 0.496094Z" fill="#521292"/>
<path d="M41.9341 15.2186H32.5281C32.702 16.3617 33.5715 17.2381 35.4618 17.2381C36.0379 17.2474 36.6087 17.1263 37.1322 16.8836C37.6557 16.6409 38.1184 16.2829 38.4862 15.8359L41.5107 18.526C40.7606 19.3949 39.8297 20.0866 38.7841 20.5515C37.7386 21.0165 36.6043 21.2434 35.4618 21.216C30.169 21.216 28.1729 17.4743 28.1729 13.7554C28.1729 10.1585 30.1161 6.13477 35.2274 6.13477C39.7036 6.13477 42.0324 9.35068 42.0324 13.8011C42.0242 14.275 41.9914 14.7482 41.9341 15.2186ZM37.8435 11.9722C37.783 10.6233 36.5959 9.80792 35.1442 9.80792C34.5092 9.76073 33.88 9.95774 33.3834 10.3593C32.8868 10.7609 32.5595 11.3372 32.4676 11.9722H37.8435Z" fill="#521292"/>
<path d="M56.7766 22.626C56.7766 25.9029 53.9034 27.4804 49.9716 27.4804C45.8205 27.4804 42.9473 25.6971 42.9473 22.908C42.949 22.5846 42.9871 22.2625 43.0607 21.9478L45.1854 21.1857C44.6091 20.8798 44.131 20.415 43.807 19.8456C43.483 19.2762 43.3265 18.6256 43.3556 17.9698C43.3417 17.4246 43.4399 16.8825 43.6442 16.3775C43.8485 15.8725 44.1544 15.4157 44.5427 15.0358C43.8157 14.1018 43.4263 12.946 43.4388 11.759C43.4388 8.39824 46.2893 6.20349 49.5632 6.20349C50.6741 6.19961 51.7701 6.46075 52.7616 6.96556L55.0829 4.97656L57.3512 7.7581L55.1963 9.48799C55.5441 10.2478 55.7247 11.0745 55.7256 11.9114C55.7256 15.1349 53.2833 17.2458 49.6767 17.2458C48.7555 17.2606 47.8397 17.1003 46.9774 16.7733C46.8948 16.925 46.8531 17.0958 46.8564 17.2687C46.8564 18.1222 47.9905 18.2975 49.7901 18.5032C53.9865 18.9452 56.7766 19.4025 56.7766 22.626ZM52.4214 23.3271C52.4214 22.3593 50.6521 22.3059 49.0491 22.1307C48.792 22.1307 48.4971 22.0697 48.2098 22.0087L47.4008 22.8318C47.3855 22.8995 47.3855 22.9698 47.4008 23.0375C47.4008 23.7996 48.3535 24.2949 50.2135 24.2949C52.0735 24.2949 52.4062 23.8225 52.4062 23.3271H52.4214ZM47.8696 11.7056C47.8696 12.7877 48.361 13.7251 49.6691 13.7251C50.9772 13.7251 51.4384 12.7877 51.4384 11.7056C51.4675 11.4592 51.4427 11.2093 51.3657 10.9735C51.2887 10.7378 51.1615 10.5219 50.9928 10.341C50.8242 10.1601 50.6183 10.0187 50.3896 9.92661C50.1609 9.83454 49.915 9.79408 49.6691 9.80806C49.4221 9.79478 49.1752 9.83544 48.9453 9.92729C48.7153 10.0191 48.5078 10.16 48.3369 10.3402C48.166 10.5204 48.0357 10.7357 47.9551 10.9714C47.8744 11.2071 47.8452 11.4575 47.8696 11.7056Z" fill="#521292"/>
<path d="M56.6631 13.672C56.6631 9.71686 59.3624 6.15039 64.0352 6.15039C68.708 6.15039 71.3846 9.68638 71.3846 13.672C71.3846 17.6576 68.6248 21.2164 64.0352 21.2164C59.4456 21.2164 56.6631 17.6195 56.6631 13.672ZM66.9991 13.672C66.9991 11.8506 66.4169 9.98358 64.0352 9.98358C61.6534 9.98358 61.0107 11.8278 61.0107 13.672C61.0107 15.5162 61.5929 17.3832 64.0352 17.3832C66.4774 17.3832 66.9991 15.4857 66.9991 13.672Z" fill="#521292"/>
<path d="M43.5371 27.6621H44.3537V34.1092H43.5371V27.6621Z" fill="black"/>
<path d="M49.8661 31.2679V34.1104H49.11V31.466C49.11 30.7039 48.8983 30.1705 48.1573 30.1705C47.2499 30.1705 46.9172 31.0088 46.9172 32.1443V34.1104H46.1611V29.538H46.9172V30.1553C47.0853 29.9291 47.305 29.7473 47.5578 29.6252C47.8106 29.5031 48.0888 29.4445 48.369 29.4542C49.3368 29.4694 49.8661 30.0943 49.8661 31.2679Z" fill="black"/>
<path d="M50.8105 32.9748L51.4608 32.6776C51.544 32.9276 51.7054 33.1438 51.9208 33.2935C52.1362 33.4433 52.394 33.5186 52.6555 33.5082C53.2452 33.5082 53.5779 33.2034 53.5779 32.8071C53.5779 31.7403 51.06 32.4185 51.06 30.7724C51.06 29.9494 51.7557 29.4693 52.6479 29.4693C52.9883 29.4511 53.3267 29.5328 53.622 29.7046C53.9172 29.8764 54.1567 30.1309 54.3114 30.4371L53.6838 30.78C53.5896 30.5817 53.4399 30.4154 53.2531 30.3017C53.0664 30.188 52.8508 30.1317 52.6328 30.1399C52.1337 30.1399 51.8237 30.3533 51.8237 30.6886C51.8237 31.6412 54.3567 31.0468 54.3567 32.7614C54.3456 32.968 54.2928 33.1701 54.2017 33.3554C54.1105 33.5408 53.9829 33.7055 53.8266 33.8395C53.6702 33.9736 53.4885 34.0741 53.2923 34.1351C53.0962 34.1961 52.8898 34.2161 52.6857 34.1941C52.2861 34.213 51.8906 34.1057 51.5544 33.8871C51.2182 33.6685 50.9582 33.3496 50.8105 32.9748Z" fill="black"/>
<path d="M59.7258 31.8237C59.7258 33.2335 59.0075 34.1937 57.7447 34.1937C57.4725 34.2033 57.2018 34.1491 56.9538 34.0353C56.7058 33.9216 56.4874 33.7515 56.3157 33.5383V35.9998H55.5596V29.5527H56.3157V30.1167C56.4862 29.9026 56.7046 29.7323 56.953 29.6197C57.2014 29.5071 57.4727 29.4554 57.7447 29.4689C58.9923 29.4689 59.7258 30.4215 59.7258 31.8237ZM58.9696 31.8237C58.9696 30.8101 58.4857 30.1624 57.6313 30.1624C56.7769 30.1624 56.2779 30.833 56.2779 31.8237C56.2779 32.8144 56.7315 33.4926 57.6313 33.4926C58.5311 33.4926 58.9394 32.8144 58.9394 31.8237H58.9696Z" fill="black"/>
<path d="M64.5795 32.0671H61.3358C61.3202 32.2516 61.3442 32.4373 61.4063 32.6115C61.4684 32.7858 61.567 32.9445 61.6955 33.0769C61.8239 33.2092 61.9792 33.3121 62.1507 33.3785C62.3222 33.4449 62.5058 33.4733 62.6892 33.4617C62.9204 33.4688 63.1503 33.424 63.3622 33.3304C63.5741 33.2368 63.7626 33.0968 63.9141 32.9206L64.4585 33.4083C64.2354 33.6603 63.9597 33.8593 63.6511 33.9911C63.3426 34.1229 63.0089 34.1841 62.6741 34.1704C62.376 34.1777 62.0798 34.1206 61.8054 34.0029C61.5311 33.8852 61.2849 33.7095 61.0836 33.4878C60.8823 33.2661 60.7304 33.0035 60.6383 32.7177C60.5461 32.4319 60.5158 32.1295 60.5494 31.8309C60.5494 30.5734 61.2299 29.4456 62.606 29.4456C62.8845 29.441 63.1608 29.4958 63.4167 29.6065C63.6727 29.7172 63.9024 29.8812 64.091 30.0878C64.2795 30.2943 64.4225 30.5388 64.5107 30.8051C64.5988 31.0714 64.6299 31.3534 64.6022 31.6327C64.6033 31.7778 64.5957 31.9229 64.5795 32.0671ZM63.8233 31.4193C63.8188 31.3916 63.8188 31.3633 63.8233 31.3355C63.8258 31.1715 63.7945 31.0087 63.7315 30.8575C63.6684 30.7062 63.5751 30.5698 63.4572 30.4567C63.3393 30.3436 63.1995 30.2563 63.0465 30.2003C62.8935 30.1444 62.7306 30.1209 62.5682 30.1314C62.4018 30.1324 62.2371 30.1666 62.0838 30.232C61.9305 30.2973 61.7915 30.3926 61.6749 30.5123C61.5582 30.632 61.4662 30.7737 61.4041 30.9294C61.342 31.0851 61.3111 31.2516 61.3131 31.4193H63.8233Z" fill="black"/>
<path d="M65.3738 31.8476C65.3445 31.5504 65.3766 31.2503 65.468 30.9663C65.5594 30.6822 65.7081 30.4202 65.9048 30.1969C66.1016 29.9736 66.342 29.7937 66.611 29.6686C66.8801 29.5435 67.1719 29.4759 67.4682 29.47C67.875 29.4555 68.2759 29.5717 68.613 29.8018C68.95 30.032 69.2058 30.3641 69.3434 30.7502L68.5873 31.0627C68.5226 30.81 68.3772 30.5859 68.1736 30.4248C67.97 30.2636 67.7195 30.1745 67.4606 30.1711C66.5608 30.1711 66.1753 30.9865 66.1753 31.8476C66.1753 32.7087 66.5608 33.4937 67.4606 33.4937C67.7152 33.4971 67.9634 33.4128 68.1641 33.2549C68.3648 33.0969 68.5061 32.8747 68.5646 32.6249L69.3207 32.8992C69.1981 33.284 68.9549 33.6184 68.6277 33.852C68.3005 34.0856 67.9068 34.2059 67.506 34.1948C67.2083 34.1972 66.9134 34.1366 66.6405 34.0168C66.3675 33.8971 66.1226 33.7208 65.9215 33.4995C65.7205 33.2782 65.5679 33.0168 65.4735 32.7322C65.3791 32.4476 65.3452 32.1463 65.3738 31.8476Z" fill="black"/>
<path d="M71.3093 30.2013V32.8913C71.3093 33.3105 71.5134 33.4934 71.8764 33.4934C72.0615 33.4856 72.2446 33.4523 72.4208 33.3943V34.0649C72.1775 34.1495 71.922 34.1933 71.6646 34.1945C71.5043 34.2082 71.3431 34.1856 71.1925 34.1285C71.0419 34.0714 70.9059 33.9811 70.7944 33.8643C70.6828 33.7475 70.5985 33.6071 70.5476 33.4532C70.4967 33.2994 70.4806 33.1361 70.5003 32.9752V30.2013H69.7441V29.5535H70.5003V28.4637L71.2564 27.877V29.5535H72.3679V30.2013H71.3093Z" fill="black"/>
</g>
<defs>
<clipPath id="clip0_859_26546">
<rect width="112.615" height="36" fill="white"/>
</clipPath>
</defs>
</svg>
