<svg width="16" height="16" viewBox="0 0 16 16" fill="none" xmlns="http://www.w3.org/2000/svg">
<path d="M12.3402 5.5002C12.6736 5.5002 12.9402 5.23353 12.9402 4.9002V1.8002C12.9402 1.46686 12.6736 1.2002 12.3402 1.2002C12.0069 1.2002 11.7402 1.46686 11.7402 1.8002V4.9002C11.7402 5.22686 12.0136 5.5002 12.3402 5.5002Z" fill="#B5B6BA"/>
<path d="M7.9999 10.5C7.66657 10.5 7.3999 10.7667 7.3999 11.1V14.2C7.3999 14.5333 7.66657 14.8 7.9999 14.8C8.33324 14.8 8.5999 14.5333 8.5999 14.2V11.1C8.5999 10.7733 8.33324 10.5 7.9999 10.5Z" fill="#B5B6BA"/>
<path d="M3.66006 5.5002C3.99339 5.5002 4.26006 5.23353 4.26006 4.9002V1.8002C4.26006 1.46686 3.99339 1.2002 3.66006 1.2002C3.32672 1.2002 3.06006 1.46686 3.06006 1.8002V4.9002C3.06006 5.22686 3.32672 5.5002 3.66006 5.5002Z" fill="#B5B6BA"/>
<path d="M4.89982 6.77979H2.41982C2.08649 6.77979 1.81982 7.04645 1.81982 7.37978C1.81982 7.71312 2.08649 7.97979 2.41982 7.97979H3.05982V14.1998C3.05982 14.5331 3.32649 14.7998 3.65982 14.7998C3.99316 14.7998 4.25982 14.5331 4.25982 14.1998V7.97979H4.89982C5.23316 7.97979 5.49982 7.71312 5.49982 7.37978C5.49982 7.04645 5.22649 6.77979 4.89982 6.77979Z" fill="#B5B6BA"/>
<path d="M13.58 6.77979H11.1C10.7667 6.77979 10.5 7.04645 10.5 7.37978C10.5 7.71312 10.7667 7.97979 11.1 7.97979H11.74V14.1998C11.74 14.5331 12.0067 14.7998 12.34 14.7998C12.6733 14.7998 12.94 14.5331 12.94 14.1998V7.97979H13.58C13.9133 7.97979 14.18 7.71312 14.18 7.37978C14.18 7.04645 13.9133 6.77979 13.58 6.77979Z" fill="#B5B6BA"/>
<path d="M9.24016 8.02019H8.60016V1.8002C8.60016 1.46686 8.33349 1.2002 8.00016 1.2002C7.66682 1.2002 7.40016 1.46686 7.40016 1.8002V8.02019H6.76016C6.42682 8.02019 6.16016 8.28686 6.16016 8.62019C6.16016 8.95353 6.42682 9.22019 6.76016 9.22019H9.24016C9.57349 9.22019 9.84016 8.95353 9.84016 8.62019C9.84016 8.28686 9.57349 8.02019 9.24016 8.02019Z" fill="#B5B6BA"/>
</svg>
