<svg width="16" height="16" viewBox="0 0 16 16" fill="none" xmlns="http://www.w3.org/2000/svg">
<path d="M7.5 12.1668H6C5.26667 12.1668 4.66667 12.7668 4.66667 13.5001V13.6668H4C3.72667 13.6668 3.5 13.8935 3.5 14.1668C3.5 14.4401 3.72667 14.6668 4 14.6668H12C12.2733 14.6668 12.5 14.4401 12.5 14.1668C12.5 13.8935 12.2733 13.6668 12 13.6668H11.3333V13.5001C11.3333 12.7668 10.7333 12.1668 10 12.1668H8.5V10.6401C8.33333 10.6601 8.16667 10.6668 8 10.6668C7.83333 10.6668 7.66667 10.6601 7.5 10.6401V12.1668Z" fill="#B5B6BA"/>
<path d="M12.32 7.76016C12.76 7.5935 13.1467 7.32016 13.4534 7.0135C14.0734 6.32683 14.48 5.50683 14.48 4.54683C14.48 3.58683 13.7267 2.8335 12.7667 2.8335H12.3934C11.96 1.94683 11.0534 1.3335 10 1.3335H6.00002C4.94669 1.3335 4.04002 1.94683 3.60669 2.8335H3.23335C2.27335 2.8335 1.52002 3.58683 1.52002 4.54683C1.52002 5.50683 1.92669 6.32683 2.54669 7.0135C2.85335 7.32016 3.24002 7.5935 3.68002 7.76016C4.37335 9.46683 6.04002 10.6668 8.00002 10.6668C9.96002 10.6668 11.6267 9.46683 12.32 7.76016ZM9.89335 5.6335L9.48002 6.14016C9.41335 6.2135 9.36669 6.36016 9.37335 6.46016L9.41335 7.1135C9.44002 7.5135 9.15335 7.72016 8.78002 7.5735L8.17335 7.3335C8.08002 7.30016 7.92002 7.30016 7.82669 7.3335L7.22002 7.5735C6.84669 7.72016 6.56002 7.5135 6.58669 7.1135L6.62669 6.46016C6.63335 6.36016 6.58669 6.2135 6.52002 6.14016L6.10669 5.6335C5.84669 5.32683 5.96002 4.98683 6.34669 4.88683L6.98002 4.72683C7.08002 4.70016 7.20002 4.60683 7.25335 4.52016L7.60669 3.9735C7.82669 3.6335 8.17335 3.6335 8.39335 3.9735L8.74669 4.52016C8.80002 4.60683 8.92002 4.70016 9.02002 4.72683L9.65335 4.88683C10.04 4.98683 10.1534 5.32683 9.89335 5.6335Z" fill="#B5B6BA"/>
</svg>
