<svg width="16" height="16" viewBox="0 0 16 16" fill="none" xmlns="http://www.w3.org/2000/svg">
<path d="M14.6665 7.3133V8.68663C14.6665 9.0533 14.3732 9.3533 13.9998 9.36663H12.6932C11.9732 9.36663 11.3132 8.83997 11.2532 8.11997C11.2132 7.69997 11.3732 7.30663 11.6532 7.0333C11.8998 6.77997 12.2398 6.6333 12.6132 6.6333H13.9998C14.3732 6.64663 14.6665 6.94663 14.6665 7.3133Z" fill="#B5B6BA"/>
<path d="M13.6468 10.3668H12.6935C11.4268 10.3668 10.3602 9.4135 10.2535 8.20016C10.1935 7.50683 10.4468 6.8135 10.9535 6.32016C11.3802 5.88016 11.9735 5.6335 12.6135 5.6335H13.6468C13.8402 5.6335 14.0002 5.4735 13.9802 5.28016C13.8335 3.66016 12.7602 2.5535 11.1668 2.36683C11.0068 2.34016 10.8402 2.3335 10.6668 2.3335H4.66683C4.48016 2.3335 4.30016 2.34683 4.12683 2.3735C2.42683 2.58683 1.3335 3.8535 1.3335 5.66683V10.3335C1.3335 12.1735 2.82683 13.6668 4.66683 13.6668H10.6668C12.5335 13.6668 13.8202 12.5002 13.9802 10.7202C14.0002 10.5268 13.8402 10.3668 13.6468 10.3668ZM8.66683 6.50016H4.66683C4.3935 6.50016 4.16683 6.2735 4.16683 6.00016C4.16683 5.72683 4.3935 5.50016 4.66683 5.50016H8.66683C8.94016 5.50016 9.16683 5.72683 9.16683 6.00016C9.16683 6.2735 8.94016 6.50016 8.66683 6.50016Z" fill="#B5B6BA"/>
</svg>
